<?xml version="1.0" encoding="UTF-8" standalone="no"?>
<svg
   viewBox="0 0 2970.6926 3295.9509"
   version="1.1"
   id="svg2"
   sodipodi:docname="favicon.svg"
   xml:space="preserve"
   width="2970.6926"
   height="3295.9509"
   inkscape:version="1.4.3 (0d15f75042, 2025-12-25)"
   xmlns:inkscape="http://www.inkscape.org/namespaces/inkscape"
   xmlns:sodipodi="http://sodipodi.sourceforge.net/DTD/sodipodi-0.dtd"
   xmlns="http://www.w3.org/2000/svg"
   xmlns:svg="http://www.w3.org/2000/svg"><defs
     id="defs2" /><sodipodi:namedview
     id="namedview2"
     pagecolor="#ffffff"
     bordercolor="#000000"
     borderopacity="0.25"
     inkscape:showpageshadow="2"
     inkscape:pageopacity="0.0"
     inkscape:pagecheckerboard="0"
     inkscape:deskcolor="#d1d1d1"
     inkscape:zoom="0.15242674"
     inkscape:cx="1403.9531"
     inkscape:cy="1823.827"
     inkscape:window-width="1536"
     inkscape:window-height="795"
     inkscape:window-x="0"
     inkscape:window-y="0"
     inkscape:window-maximized="1"
     inkscape:current-layer="svg2"
     showgrid="false" /><style
     id="style2">path{fill:#000}@media (prefers-color-scheme:dark){path{fill:#fff}}</style><g
     style="fill:#ffe600;fill-opacity:1"
     id="g3"
     transform="scale(1.355243)"><path
       d="m 953.195,38.0964 c 88.365,-50.7952 197.245,-50.7952 285.615,0 L 2049.19,503.919 C 2137.56,554.714 2192,648.587 2192,750.178 v 931.642 c 0,101.59 -54.44,195.47 -142.81,246.26 l -810.38,465.82 c -88.37,50.8 -197.25,50.8 -285.615,0 L 142.805,1928.08 C 54.4371,1877.29 0,1783.41 0,1681.82 V 750.178 C 0,648.587 54.4371,554.714 142.805,503.919 Z"
       fill="#FFE100"
       id="path1"
       style="fill:#ffe600;fill-opacity:1" /></g><path
     style="fill:#010101;stroke:none;stroke-width:1.22032"
     d="m 444.05912,970.75428 h 50.9821 c 5.55671,0 14.75508,1.85794 18.83167,-2.76876 4.39314,-4.9861 1.77812,-19.07513 1.77812,-25.43408 0,-6.0081 2.32641,-18.11485 -2.28541,-22.65749 -3.17659,-3.12889 -8.29631,-2.29125 -12.35838,-2.29125 H 471.71965 352.39984 c -12.06636,0 -24.28758,-0.56855 -36.3382,0.022 -4.46159,0.21855 -8.16549,2.93643 -8.62092,7.57132 -1.06228,10.81053 -0.0574,22.21817 -0.0574,33.08423 0,4.43658 -0.24101,9.20215 4.34688,11.55847 4.2273,2.17098 11.08034,0.91578 15.7206,0.91578 h 35.25358 c 3.27704,0 14.97133,-1.76159 16.48598,1.7076 1.35468,3.10288 0.3273,8.49672 0.3273,11.85151 v 28.20279 98.1676 27.6605 c 0,3.7444 -0.9471,9.0451 0.79002,12.4722 2.66042,5.2483 8.85877,4.8834 13.85376,4.8834 h 36.88064 c 5.24491,0 10.89034,-0.6421 12.58852,-6.5083 1.59642,-5.5142 0.42809,-12.7241 0.42809,-18.4404 v -37.423 -122.5739 m 167.59013,91.6593 h 87.32031 v 63.4564 c 0,7.0213 -2.33751,19.2594 1.23581,25.4825 2.7113,4.7219 8.69915,4.3474 13.40797,4.3474 h 34.71127 c 4.90971,0 10.73512,0.2371 13.31133,-4.8818 2.44857,-4.8653 0.79004,-13.6157 0.79004,-18.982 v -44.4739 -108.47248 c 0,-17.79355 1.71051,-36.5398 -0.0574,-54.23621 -0.48593,-4.86565 -4.72994,-6.99399 -9.16323,-7.04854 -12.65089,-0.15608 -25.31349,0 -37.96536,0 -4.90666,0 -10.95575,-1.04972 -14.41657,3.27801 -4.18825,5.23747 -1.8544,17.45063 -1.8544,23.84009 v 63.45633 h -64.54103 -15.72853 c -1.79314,0 -4.77912,0.5323 -6.18115,-0.8696 -2.73583,-2.7358 -0.86959,-13.82195 -0.86959,-17.5706 V 939.842 c 0,-6.4418 2.40475,-17.48748 -4.34689,-21.12475 -7.00084,-3.77164 -20.88486,-1.11208 -28.73722,-1.11208 -7.47785,0 -15.95612,-1.11623 -23.32158,0.17829 -8.93953,1.5709 -7.05073,11.4944 -7.05073,18.26201 v 56.94809 112.81134 31.4571 c 0,3.9895 -1.07889,9.8973 0.71472,13.5585 2.41855,4.9372 8.135,4.8818 12.84432,4.8818 h 35.25358 c 4.77997,0 10.68985,0.3219 13.55405,-4.3474 3.50279,-5.7101 1.08975,-18.3524 1.08975,-24.9402 v -63.9987 m 261.96116,43.9314 v -47.1857 h 81.35432 20.06749 c 3.33748,0 6.9785,0.4927 9.70553,-1.841 3.24789,-2.7794 2.7688,-6.7763 2.7688,-10.6332 0,-8.8494 1.36356,-18.9426 -0.12208,-27.6606 -0.47772,-2.8038 -2.63352,-5.1379 -5.30223,-6.045 -3.40557,-1.1579 -7.83311,-0.4634 -11.38923,-0.4634 h -22.23684 -74.846 v -46.1007 h 82.98148 23.32159 c 3.3863,0 7.69622,0.70363 10.83931,-0.7688 2.95004,-1.38213 4.5766,-4.18581 4.83865,-7.36655 0.6757,-8.20431 0.0503,-16.71504 0.0503,-24.94876 0,-3.61408 0.65568,-8.09386 -1.16045,-11.3875 -2.51648,-4.56349 -7.34591,-4.34102 -11.85623,-4.34102 H 954.42098 851.37203 825.88097 c -3.82094,0 -8.22835,-0.45653 -11.2678,2.38291 -3.5571,3.32328 -2.29125,10.04929 -2.29125,14.43036 v 36.88058 135.04838 33.084 c 0,4.3384 -1.08036,10.0756 2.28552,13.4431 4.76034,4.763 14.91263,2.8278 21.03605,2.8278 h 56.4058 79.18495 c 7.1732,0 22.26203,2.8903 26.20259,-4.8833 1.65999,-3.2748 0.91561,-7.8248 0.91561,-11.3876 0,-7.946 0.19959,-15.9207 -0.0131,-23.8639 -0.0868,-3.3188 -1.26626,-6.3343 -4.33306,-7.9841 -3.38567,-1.8216 -7.68711,-1.236 -11.3875,-1.236 h -23.3211 -85.69326 m -380.73854,615.0392 h 253.28326 v 196.8774 49.8975 c 0,9.1566 -1.0236,18.6173 4.45867,26.5758 9.4018,13.6486 28.42737,10.3049 42.72692,10.3049 h 75.93072 c 12.48262,0 25.54427,1.1101 37.96538,-0.093 12.81685,-1.2404 21.98581,-10.3787 23.22956,-23.2293 1.71614,-17.7311 0.0915,-36.4152 0.0915,-54.2363 v -107.93 -327.5871 -137.7602 -37.423 c 0,-7.6141 0.79174,-15.6487 -2.45016,-22.7792 -6.96897,-15.3281 -23.6081,-14.1015 -37.68469,-14.1015 H 788.45293 c -14.00275,0 -30.48641,-2.0966 -38.80408,11.9321 -4.67418,7.8835 -3.50024,17.2514 -3.50024,26.0333 v 49.3551 188.1998 H 492.8654 v -186.5728 -49.3549 c 0,-8.9226 1.16198,-18.5076 -3.43751,-26.5757 -8.37514,-14.6907 -24.95168,-13.0169 -39.40925,-13.0169 H 348.59686 c -14.11272,0 -31.91297,-1.5015 -38.81154,14.1015 -3.18406,7.2013 -2.40806,15.1055 -2.40806,22.7792 v 38.5078 138.8448 325.9599 107.9301 c 0,17.7592 -1.19261,35.9825 0.0488,53.694 0.90376,12.8965 10.65446,22.0083 23.27313,23.2293 12.59805,1.2195 25.84702,0.093 38.50768,0.093 h 77.01547 c 14.9075,0 32.45479,2.7396 42.1846,-11.3896 5.45408,-7.9201 4.45867,-17.4586 4.45867,-26.5759 v -49.3548 -196.3353 M 1097.6,1280.1356 c -28.1281,4.0299 -22.7793,34.064 -22.7793,55.0888 v 173.0136 363.3829 88.9475 c 0,12.302 -2.4752,27.6971 7.1508,37.3229 10.5271,10.5274 29.3011,7.1509 42.7466,7.1509 h 78.6426 c 12.6075,0 26.5983,1.707 39.0501,-0.2381 28.1627,-4.3993 22.7793,-35.2099 22.7793,-56.1676 v -175.1831 -359.5865 -88.405 c 0,-12.7064 2.6376,-27.4964 -7.0721,-37.4151 -11.1027,-11.3423 -28.9251,-8.1434 -43.3677,-8.1434 H 1136.65 c -12.6752,0 -26.5069,-1.5649 -39.05,0.2322 m 596.5989,504.7074 c -4.6121,-9.1776 -6.6474,-20.5358 -9.6106,-30.3723 -5.9425,-19.7261 -11.9509,-39.4437 -18.0637,-59.1175 -18.2229,-58.6495 -36.6688,-117.323 -53.9102,-176.2679 -15.8152,-54.0688 -33.606,-107.561 -49.4372,-161.624 -3.6634,-12.5107 -7.4693,-25.0049 -11.433,-37.4231 -4.1348,-12.9538 -7.0255,-23.5295 -18.0847,-32.4904 -12.1991,-9.8846 -28.7246,-7.6444 -43.389,-7.6444 h -92.2017 c -14.2254,0 -32.1733,-0.9857 -37.0183,16.271 -3.5686,12.7107 6.398,30.7171 10.0521,42.8465 10.9366,36.3041 22.8331,72.3548 34.3727,108.4726 42.5186,133.079 86.412,265.9546 126.709,399.7211 11.5271,38.2641 23.6614,76.489 36.1868,114.4386 5.9798,18.1172 11.2728,36.1444 31.9989,41.6777 15.8865,4.2414 34.649,1.7113 50.9822,1.7113 h 95.9983 c 18.2307,0 39.1302,2.9751 54.2358,-9.4722 11.7031,-9.6434 14.7212,-27.2095 18.9968,-40.9675 9.0611,-29.1562 18.5996,-58.1642 27.6605,-87.3203 34.445,-110.837 70.7714,-221.0896 105.2184,-331.926 19.2925,-62.0755 41.0447,-123.5654 59.027,-186.0305 3.2511,-11.2924 7.3132,-22.3472 10.6115,-33.6263 1.3617,-4.6557 3.7209,-10.274 3.4528,-15.1862 -0.3742,-6.8533 -5.4001,-12.9635 -10.7334,-16.8525 -10.1667,-7.4129 -29.2338,-3.7573 -41.2197,-3.7573 h -85.1508 c -16.6844,0 -32.8659,0.025 -43.9862,14.6438 -9.7611,12.8315 -12.1115,32.0423 -16.945,47.1855 -11.4278,35.8018 -21.9053,71.9457 -32.7457,107.9301 -21.9587,72.892 -43.7454,145.8729 -66.3339,218.5722 -8.0717,25.9787 -15.8514,52.0523 -23.6982,78.1002 -3.8289,12.7098 -8.8515,25.5094 -11.5415,38.5078 m 606.9037,71.0494 v -143.7261 h 235.3854 58.5751 c 9.5204,0 20.3695,0.8892 28.2022,-5.6017 9.9326,-8.2309 9.2207,-20.1768 9.2207,-31.8212 v -54.7787 c 0,-9.179 1.0729,-19.1159 -0.2323,-28.2028 -1.3416,-9.3417 -7.4823,-18.0922 -16.5808,-21.3152 -9.591,-3.3977 -21.942,-1.4641 -31.9995,-1.4641 h -64.5411 -218.0298 V 1429.053 h 241.3515 66.7105 c 10.2538,0 23.0406,2.0965 32.5417,-2.437 8.8376,-4.217 13.4447,-14.1471 13.557,-23.5964 0.2983,-25.1212 0,-50.2648 0,-75.3883 0,-10.7403 2.3596,-24.9248 -2.9928,-34.7112 -7.221,-13.2032 -20.7751,-13.0167 -33.8878,-13.0167 h -82.4392 -299.3841 -73.2189 c -11.6667,0 -24.2373,-1.4021 -33.4697,7.3025 -10.9588,10.3324 -7.2076,30.1224 -7.2076,43.6796 v 113.8961 408.9415 101.9641 c 0,13.3753 -3.1164,30.9141 6.7603,41.6677 6.7701,7.3717 16.5474,7.6873 25.7815,7.6873 h 33.0841 159.997 234.3006 46.6432 c 12.719,0 24.879,-0.6963 31.3106,-13.5592 4.9311,-9.8621 2.8583,-22.9274 2.8583,-33.6264 v -69.9647 c 0,-11.0796 -1.0227,-22.5663 -11.9319,-28.5754 -9.7743,-5.3839 -22.3182,-3.4241 -33.0841,-3.4241 h -67.2447 -250.0291 m -685.004,274.1234 c -16.4956,2.1676 -32.5082,5.0361 -47.1855,13.4103 -11.3231,6.4606 -21.2027,15.0792 -27.7294,26.4944 -13.7246,24.0032 -11.525,59.9921 9.8313,79.0906 21.2906,19.0399 52.2906,24.1809 79.185,30.1543 14.4084,3.2005 46.3899,9.2906 41.9414,30.1422 -3.9543,18.5357 -31.0566,20.8828 -46.2803,19.433 -10.4481,-0.995 -20.3648,-4.0487 -28.2025,-11.3466 -4.6757,-4.3534 -7.1389,-10.9531 -13.0171,-13.9017 -8.9926,-4.5108 -23.7638,-1.7777 -33.6264,-1.7777 -5.9278,0 -16.0216,-1.9208 -21.1287,1.5614 -4.8042,3.2758 -3.3908,10.3996 -2.3747,15.2517 2.8215,13.4733 9.668,24.7852 19.7068,34.1204 28.3655,26.3781 75.3379,29.6089 111.7267,24.2228 15.8128,-2.3405 31.4143,-7.3242 45.0161,-15.809 34.2823,-21.3852 47.7575,-75.8962 14.1015,-104.743 -20.9165,-17.9273 -50.6111,-21.6184 -76.4732,-27.4706 -14.387,-3.2554 -45.8373,-8.2275 -44.2976,-28.5555 1.5299,-20.1987 26.9275,-22.8841 42.6705,-19.9261 8.1348,1.5286 15.8003,5.7642 20.9404,12.3329 2.5429,3.2494 2.991,7.4215 6.7222,9.7654 4.0184,2.5246 9.5718,1.6243 14.0993,1.6243 h 30.3724 c 4.1213,0 10.5769,1.2256 14.0427,-1.4389 3.8069,-2.9263 2.5704,-8.0854 1.7917,-12.1201 -2.0745,-10.7506 -7.9986,-20.4624 -14.9878,-28.7454 -22.2,-26.3098 -63.6921,-36.1259 -96.8448,-31.7691 m 705.6137,0 c -25.6026,3.3642 -51.6155,9.6552 -69.8727,29.602 -24.3146,26.565 -24.4984,60.5041 -24.4984,94.3689 0,34.5237 0.037,69.5635 25.0409,96.5326 9.5615,10.3133 23.0779,17.1485 36.246,21.5217 30.4452,10.111 67.4903,9.5735 97.6254,-1.4752 24.9487,-9.1472 47.0705,-27.9987 54.4643,-54.2074 1.738,-6.1609 6.0865,-20.558 1.1851,-25.9175 -2.3856,-2.6085 -5.7885,-2.2854 -9.0062,-2.2854 h -20.0674 -20.0675 c -3.4115,0 -7.3026,-0.4548 -10.2832,1.5614 -4.0086,2.7118 -4.5523,8.2969 -5.9897,12.54 -1.8721,5.5258 -4.9001,10.843 -8.8325,15.165 -15.817,17.3826 -52.3067,15.3651 -66.1412,-3.233 -10.5065,-14.1242 -9.0903,-33.8135 -9.0903,-50.4397 0,-12.5586 -1.4039,-26.0593 0.23,-38.5078 1.3858,-10.557 1.7475,-20.6517 8.0245,-29.8299 12.3759,-18.0966 41.3532,-20.5552 59.5407,-10.1221 7.1134,4.0808 12.0479,10.753 15.0773,18.2575 1.8382,4.5537 2.6919,10.9014 6.356,14.4165 3.3885,3.2511 9.5475,2.3967 13.8203,2.3967 h 31.9993 c 4.2389,0 9.8181,0.9592 13.4572,-1.6994 4.2088,-3.0748 2.6552,-9.1057 2.2713,-13.4867 -1.1655,-13.309 -6.1914,-25.684 -14.1699,-36.3383 -23.4265,-31.2828 -69.5268,-43.7862 -107.3193,-38.8199 M 366.50132,2237.1735 h 0.54231 c 2.30274,7.2759 7.41049,14.5012 11.15942,21.152 7.06233,12.5286 14.0905,25.1923 20.69986,37.9654 3.24946,6.2802 7.10138,17.3589 14.24157,19.9951 7.07844,2.6136 23.9443,3.1189 30.37024,-1.1475 6.68856,-4.441 10.3196,-15.203 13.98434,-22.1018 6.26071,-11.7857 12.55339,-23.5827 19.02655,-35.2535 3.48913,-6.2907 8.38479,-13.1539 10.38026,-20.0675 h 0.5423 v 92.2017 26.5758 c 0,4.3218 -0.7411,9.4484 0.84787,13.5569 2.076,5.368 7.84468,5.4258 12.71118,5.4258 11.56994,0 23.14146,0.055 34.71128,-6e-4 4.43633,-0.021 9.51979,-1.139 11.03543,-5.9654 1.58214,-5.0378 0.35414,-12.0947 0.35414,-17.3556 v -37.4231 -123.6586 -40.1349 c 0,-5.0349 1.43058,-11.9191 -2.73571,-15.6068 -3.41846,-3.0255 -8.22382,-2.2911 -12.45038,-2.2911 h -26.5758 c -4.58802,0 -9.2993,-0.3926 -13.00845,2.8278 -3.54586,3.0786 -5.47349,7.805 -7.75375,11.8159 -4.40609,7.7505 -8.70197,15.564 -13.09449,23.3217 -8.89427,15.7087 -17.68189,31.4773 -26.5758,47.1855 -5.71266,10.0893 -12.64906,20.2194 -17.12542,30.9147 h -1.08474 c -2.79403,-9.4992 -10.1385,-19.05 -15.0338,-27.6605 -10.35572,-18.2156 -20.43407,-36.5916 -30.83849,-54.7787 -4.01946,-7.0262 -7.94193,-14.108 -11.93029,-21.1521 -1.92199,-3.3945 -3.55172,-7.4769 -6.7603,-9.8769 -4.14371,-3.0993 -9.20241,-2.5974 -14.07964,-2.5974 h -26.03349 c -4.2423,0 -9.57459,-0.7422 -12.66468,2.8906 -3.42689,4.0287 -1.97911,11.7333 -1.97911,16.6344 v 41.2195 119.3198 37.4231 c 0,5.7832 -1.07997,12.809 0.28922,18.4403 1.07607,4.4252 5.26834,6.296 9.47331,6.4872 12.05953,0.5482 24.26524,0.021 36.33833,0.021 4.89541,0 10.40209,-0.036 12.47723,-5.4258 1.44436,-3.7508 0.5395,-9.0444 0.5395,-13.0144 v -27.1181 -92.7441 m 283.11327,95.4558 h 65.08348 18.44032 c 2.53434,0 6.23568,-0.6725 8.6059,0.3273 2.89387,1.2209 4.01167,7.2823 5.05565,9.9776 3.38504,8.7393 5.77954,19.8688 11.04239,27.6388 2.79502,4.1268 7.52643,4.8955 12.17681,4.9029 h 29.28758 c 4.37055,0 9.96937,0.9132 14.10099,-0.7289 8.50206,-3.379 3.04895,-13.472 0.85495,-19.3384 -6.81497,-18.2227 -13.28509,-36.575 -20.14985,-54.7787 -14.6112,-38.7445 -28.34147,-77.8226 -42.84615,-116.608 -4.04668,-10.8203 -7.88592,-21.7203 -11.932,-32.5416 -1.69868,-4.5429 -2.77317,-10.2722 -5.94098,-14.0509 -6.26803,-7.4772 -21.93982,-4.3895 -30.62749,-4.3895 h -26.03348 c -4.46538,0 -9.53544,-0.6136 -13.55907,1.7505 -5.76513,3.3873 -7.11614,10.8827 -9.3243,16.6899 -5.34169,14.047 -10.34743,28.223 -15.5971,42.3042 -9.62536,25.8181 -19.04437,51.7138 -28.59969,77.5579 -8.885,24.0309 -17.96476,48.006 -26.58153,72.1341 -2.45063,6.8623 -10.13875,19.3031 -7.8664,26.5759 2.76353,8.8451 21.13648,5.4235 28.30914,5.4235 8.32011,0 21.29804,2.4153 28.73733,-1.9162 3.98483,-2.3202 5.03942,-7.0661 6.54345,-11.1004 3.55076,-9.5241 9.09697,-19.8169 10.82005,-29.83 m 257.62223,-49.3549 h 0.54243 c 4.38484,8.5888 12.63832,16.4037 18.75247,23.8638 11.92944,14.5554 23.69793,29.2591 35.48337,43.9315 6.11415,7.6115 12.99002,20.422 22.77966,23.4442 5.79002,1.7873 12.45338,0.962 18.44025,0.962 h 33.0841 c 5.7556,0 13.5345,-0.1922 12.9518,-8.1353 -0.2535,-3.4577 -3.1102,-6.0915 -5.1286,-8.6779 l -13.559,-17.3555 c -17.2169,-22.0974 -34.72736,-43.9742 -51.81916,-66.1683 -4.75725,-6.1773 -9.61704,-12.2746 -14.38957,-18.4403 -1.50794,-1.9481 -5.10422,-4.9926 -5.18182,-7.5931 -0.0732,-2.429 3.25518,-5.2865 4.6666,-7.0506 l 13.88463,-17.3556 48.16192,-60.2024 c 4.7803,-5.9749 16.5953,-15.8646 16.8492,-23.8638 0.2401,-7.5677 -7.5424,-7.5932 -12.9443,-7.5932 h -32.54178 c -5.57939,0 -11.93403,-0.8397 -17.35552,0.6287 -8.87479,2.4037 -14.89887,13.7731 -20.47426,20.5234 -11.59227,14.0353 -22.99538,28.2259 -34.53456,42.3042 -5.46397,6.6663 -13.53746,13.8617 -17.12543,21.6946 -1.73151,-5.8582 -0.54243,-13.4245 -0.54243,-19.525 v -39.5925 c 0,-6.2292 1.999,-16.7236 -1.37395,-22.1863 -2.84443,-4.6067 -8.62105,-3.8471 -13.26984,-3.8471 h -35.25358 c -4.59425,4e-4 -9.9274,0.5408 -11.17578,5.966 -1.92895,8.383 -0.2138,19.0526 -0.2138,27.6605 v 57.4904 98.71 30.9146 c 0,4.7961 -0.84238,10.4994 0.21344,15.1862 1.02555,4.5528 5.26896,6.3887 9.54908,6.5004 12.09492,0.3155 24.23878,0.012 36.33834,0.012 4.66538,0 10.68581,0.6107 13.70682,-3.8199 3.87719,-5.6862 1.47927,-18.2783 1.47927,-24.9253 v -63.4564 m 229.96188,42.3041 v -48.27 h 80.2695 19.5251 c 3.3351,0 6.933,0.3923 9.6604,-1.9296 3.1922,-2.7179 2.8141,-6.7611 2.8141,-10.5449 0,-8.9421 1.7868,-20.0367 -0.2141,-28.7452 -0.6511,-2.8347 -3.0018,-5.2097 -5.752,-6.0724 -9.4008,-2.9484 -23.2305,-0.4359 -33.0842,-0.4359 h -73.2188 v -46.6434 h 82.9814 22.2368 c 3.4746,0 7.6939,0.6013 10.8255,-1.2356 3.5972,-2.11 3.8169,-5.8859 3.8183,-9.6116 v -23.8639 c 0,-3.3321 0.7608,-7.7864 -0.7901,-10.8452 -2.251,-4.4395 -6.8415,-4.3409 -11.1419,-4.3409 h -28.2028 -100.337 -24.9489 c -3.9452,0 -8.5406,-0.6399 -11.8164,2.0608 -4.0882,3.3708 -2.8273,10.0734 -2.8273,14.7524 v 37.9654 135.5906 34.7113 c 0,4.3209 -1.1239,10.4733 1.8543,14.0444 4.3135,5.1723 13.8838,3.3112 19.8402,3.3112 h 52.6092 81.3544 c 7.0956,0 22.8739,3.0367 26.5353,-4.8834 1.6661,-3.6043 1.1252,-8.0761 1.1252,-11.9299 0,-7.5859 0.1781,-15.1956 -0.012,-22.7791 -0.09,-3.696 -0.9643,-7.1819 -4.333,-9.2153 -2.9217,-1.7634 -7.0319,-1.0898 -10.3027,-1.0898 h -22.7794 -85.6933 m 225.0805,-35.7958 h 24.9487 c 2.8288,0 7.6821,-0.9216 10.1894,0.5575 2.0652,1.2184 3.0203,4.4556 4.0462,6.4932 2.2889,4.5454 4.7211,9.0337 7.0567,13.5591 7.3968,14.3307 15.2518,28.442 22.5047,42.8466 3.0644,6.0858 6.1808,15.7041 12.0685,19.5418 5.117,3.3351 11.5472,2.6951 17.3535,2.6951 h 31.457 c 5.2696,0 12.6362,0.3325 13.7637,-6.5083 0.7856,-4.767 -3.8529,-10.1837 -6.0049,-14.1015 -6.3847,-11.6242 -12.9368,-23.1643 -19.4608,-34.7112 -7.6717,-13.5788 -16.4147,-27.0954 -23.0093,-41.2196 49.8984,-16.9941 56.6843,-91.172 19.5252,-123.5019 -31.3599,-27.2838 -75.9184,-22.3936 -114.4386,-22.3936 h -45.0162 c -5.2895,0 -12.9547,-1.4651 -16.2658,3.8183 -1.936,3.0894 -1.0898,7.8785 -1.0898,11.3678 v 26.0334 97.083 76.473 c 0,6.6904 -2.8555,21.6189 3.3488,25.9551 5.6994,3.9836 17.6421,1.7055 24.3118,1.7055 h 21.1521 c 3.7031,0 7.7856,0.1932 10.7904,-2.3834 5.0634,-4.3421 2.7687,-15.9771 2.7687,-22.0229 v -61.287 m 474.5673,1.0847 c 24.8422,0 50.3799,1.8255 74.8459,-3.1461 18.3618,-3.7315 36.6901,-12.2089 48.4505,-27.2262 22.0783,-28.1928 19.072,-79.0732 -7.2309,-103.5428 -31.0379,-28.8749 -76.5263,-23.9124 -115.5232,-23.9124 h -46.6432 c -5.3446,0 -13.3127,-1.5741 -17.002,3.3053 -2.4171,3.1967 -1.9806,7.5758 -1.9806,11.3385 v 23.3217 92.2015 80.812 c 0,7.3616 -3.0071,23.5393 2.8906,28.9985 5.5831,5.168 19.8398,2.4586 26.9393,2.4586 h 21.1522 c 3.899,0 8.1381,0.2986 11.2874,-2.4586 5.0669,-4.4361 2.814,-15.8562 2.814,-21.9477 v -60.2023 m 225.6229,-157.5754 c -7.5709,1.3651 -9.5942,6.8585 -12.0365,13.3069 -3.8894,10.2694 -7.4974,20.6459 -11.3896,30.9148 -17.754,46.8417 -34.4892,94.0766 -51.9896,141.0142 -4.778,12.815 -9.3208,25.723 -14.1785,38.5077 -1.7564,4.6224 -5.3288,11.2138 -1.3715,15.6698 3.3063,3.7234 8.9469,2.7706 13.4078,2.7706 h 28.7452 c 4.3654,0 9.7333,0.5586 13.5569,-2.0085 3.6083,-2.422 4.7478,-6.6212 6.198,-10.4659 2.4536,-6.5051 4.9069,-13.0106 7.336,-19.525 1.0121,-2.7145 2.1676,-9.2503 5.0304,-10.52 5.0762,-2.2515 14.9318,-0.3272 20.4879,-0.3272 h 48.8127 15.7285 c 1.8376,0 4.6696,-0.5091 6.2816,0.5574 2.5939,1.7161 3.5863,7.5165 4.6758,10.2898 3.3558,8.5421 5.6915,20.2576 11.1709,27.6372 3.2164,4.332 8.7868,4.3622 13.6675,4.3622 h 27.1183 c 4.308,0 9.3673,0.7171 13.5589,-0.3846 10.056,-2.6429 3.6952,-14.6218 1.397,-20.7675 -7.8253,-20.9266 -15.4467,-41.9321 -23.1204,-62.9141 -13.8881,-37.975 -27.4755,-76.0987 -41.8373,-113.8961 -3.5552,-9.3573 -7.0012,-18.7763 -10.3674,-28.2029 -1.7691,-4.9539 -3.0002,-10.4897 -7.4283,-13.7989 -4.8937,-3.6569 -12.1639,-2.472 -17.896,-2.472 -14.5265,0 -31.2738,-2.3242 -45.5583,0.2521 m 478.3637,192.2865 v -48.27 h 79.7275 19.525 c 3.33,0 6.968,0.3897 9.7328,-1.8545 3.2775,-2.6604 3.2835,-6.7704 3.2837,-10.62 0,-8.7821 1.1304,-18.4329 -0.163,-27.1181 -0.5059,-3.3956 -2.431,-6.5258 -5.8034,-7.6721 -3.2589,-1.1077 -7.4459,-0.4633 -10.8467,-0.4633 h -21.6944 -73.7615 v -46.6434 h 81.3544 22.7793 c 3.4062,0 7.6882,0.6744 10.8451,-0.8525 2.9777,-1.4407 4.5712,-4.6356 4.8328,-7.8252 0.6879,-8.3833 0.05,-17.078 0.05,-25.491 0,-3.591 0.7343,-8.1476 -1.1335,-11.3876 -2.6138,-4.5342 -7.3138,-4.3409 -11.8831,-4.3409 h -27.1182 -101.4219 -24.9486 c -3.8509,0 -8.2797,-0.6075 -11.3171,2.2912 -3.8289,3.6545 -2.7843,10.2901 -2.7843,15.0645 v 37.4229 136.1331 34.1688 c 0,4.6821 -0.9527,10.7381 2.4586,14.5277 4.3675,4.8523 15.0059,2.8279 20.863,2.8279 h 57.4904 75.9308 c 6.9471,0 21.3324,2.7873 25.4422,-4.3411 1.8679,-3.2398 1.1336,-7.7964 1.1336,-11.3875 0,-8.1348 0.038,-16.2713 -6e-4,-24.4062 -0.018,-3.6384 -0.8292,-7.0407 -4.3463,-8.8468 -3.1287,-1.607 -7.4319,-0.9159 -10.8394,-0.9159 h -23.3216 -84.0662 M 1362.2747,2240.431 v -59.1176 h 35.2535 c 8.2661,0 17.0088,-0.3317 24.4063,4.0543 17.7272,10.5106 18.7134,41.9756 -0.5422,51.605 -7.6644,3.8328 -16.102,3.4583 -24.4064,3.4583 h -34.7112 m 473.4824,2.7118 v -61.8294 h 34.1689 c 7.9345,0 15.9039,-0.4861 23.3216,2.8813 20.1079,9.1286 22.409,43.0053 3.2542,54.3629 -7.8811,4.673 -17.1837,4.5852 -26.0334,4.5852 h -34.7113 m -1138.96135,-50.9821 17.18864,48.2703 14.81073,42.3043 h -64.54116 c 5.70827,-20.9138 14.59119,-41.4018 21.86147,-61.8295 3.10179,-8.7151 5.14338,-21.3442 10.68032,-28.7451 m 1394.95655,0 31.9994,90.5746 h -64.5412 c 4.8538,-20.981 14.7466,-41.4431 21.6929,-61.8295 2.1026,-6.1701 4.4452,-12.2581 6.5101,-18.4402 1.1075,-3.3162 2.0142,-7.6678 4.3388,-10.3049 z"
     id="path3" /></svg>
