<?xml version="1.0" encoding="UTF-8" standalone="no"?>
<svg
   viewBox="0 0 2970.6926 3295.9509"
   version="1.1"
   id="svg2"
   sodipodi:docname="favicon.svg"
   xml:space="preserve"
   width="2970.6926"
   height="3295.9509"
   inkscape:version="1.4.3 (0d15f75042, 2025-12-25)"
   xmlns:inkscape="http://www.inkscape.org/namespaces/inkscape"
   xmlns:sodipodi="http://sodipodi.sourceforge.net/DTD/sodipodi-0.dtd"
   xmlns="http://www.w3.org/2000/svg"
   xmlns:svg="http://www.w3.org/2000/svg"><defs
     id="defs2" /><sodipodi:namedview
     id="namedview2"
     pagecolor="#ffffff"
     bordercolor="#000000"
     borderopacity="0.25"
     inkscape:showpageshadow="2"
     inkscape:pageopacity="0.0"
     inkscape:pagecheckerboard="0"
     inkscape:deskcolor="#d1d1d1"
     inkscape:zoom="0.038885738"
     inkscape:cx="-231.44732"
     inkscape:cy="5091.8411"
     inkscape:window-width="1536"
     inkscape:window-height="795"
     inkscape:window-x="0"
     inkscape:window-y="0"
     inkscape:window-maximized="1"
     inkscape:current-layer="svg2" /><style
     id="style2">path{fill:#000}@media (prefers-color-scheme:dark){path{fill:#fff}}</style><g
     style="fill:#ffe100;fill-opacity:1"
     id="g3"
     transform="scale(1.355243)"><path
       d="m 953.195,38.0964 c 88.365,-50.7952 197.245,-50.7952 285.615,0 L 2049.19,503.919 C 2137.56,554.714 2192,648.587 2192,750.178 v 931.642 c 0,101.59 -54.44,195.47 -142.81,246.26 l -810.38,465.82 c -88.37,50.8 -197.25,50.8 -285.615,0 L 142.805,1928.08 C 54.4371,1877.29 0,1783.41 0,1681.82 V 750.178 C 0,648.587 54.4371,554.714 142.805,503.919 Z"
       fill="#FFE100"
       id="path1"
       style="fill:#ffe100;fill-opacity:1" /></g><path
     style="fill:#010101;stroke:none"
     d="m 632.0531,1093.0198 h 41.7778 c 4.5535,0 12.0912,1.5225 15.4318,-2.2689 3.6,-4.0859 1.4571,-15.6313 1.4571,-20.8422 0,-4.9234 1.9064,-14.8444 -1.8728,-18.5669 -2.6031,-2.564 -6.7985,-1.8776 -10.1272,-1.8776 h -24 -97.7778 c -9.8879,0 -19.9027,-0.4659 -29.7777,0.018 -3.6561,0.1791 -6.6913,2.4063 -7.0645,6.2044 -0.8705,8.8588 -0.047,18.2069 -0.047,27.1112 0,3.6356 -0.1975,7.5408 3.5621,9.4717 3.4641,1.7791 9.0799,0.7505 12.8824,0.7505 h 28.8889 c 2.6854,0 12.2684,-1.4436 13.5096,1.3993 1.1101,2.5427 0.2682,6.9627 0.2682,9.7118 v 23.1111 80.4444 22.6667 c 0,3.0684 -0.7761,7.4121 0.6474,10.2205 2.1801,4.3008 7.2594,4.0017 11.3526,4.0017 h 30.2222 c 4.298,0 8.9242,-0.5262 10.3158,-5.3333 1.3082,-4.5187 0.3508,-10.4269 0.3508,-15.1111 V 1193.4644 1093.02 m 137.3334,75.1111 h 71.5555 v 52 c 0,5.7537 -1.9155,15.7823 1.0127,20.8819 2.2218,3.8694 7.1286,3.5625 10.9873,3.5625 h 28.4445 c 4.0233,0 8.797,0.1943 10.9081,-4.0004 2.0065,-3.987 0.6474,-11.1575 0.6474,-15.5551 v -36.4445 -88.8889 c 0,-14.5811 1.4017,-29.9429 -0.047,-44.4444 -0.3982,-3.9872 -3.876,-5.7313 -7.5089,-5.776 -10.3669,-0.1279 -20.7434,0 -31.1111,0 -4.0208,0 -8.9778,-0.8602 -11.8138,2.6862 -3.4321,4.2919 -1.5196,14.3001 -1.5196,19.536 v 52 h -52.8888 -12.8889 c -1.4694,0 -3.9163,0.4362 -5.0652,-0.7126 -2.2419,-2.242 -0.7126,-11.3266 -0.7126,-14.3985 v -40.8889 c 0,-5.2788 1.9706,-14.3303 -3.5621,-17.3109 -5.7369,-3.0907 -17.1143,-0.9113 -23.549,-0.9113 -6.1278,0 -13.0754,-0.9147 -19.1111,0.1461 -7.3256,1.2873 -5.7778,9.4192 -5.7778,14.965 v 46.6667 92.4444 25.7778 c 0,3.2693 -0.8841,8.1105 0.5857,11.1107 1.9819,4.0458 6.6663,4.0004 10.5254,4.0004 h 28.8889 c 3.917,0 8.7599,0.2637 11.107,-3.5625 2.8704,-4.6792 0.893,-15.039 0.893,-20.4375 v -52.4444 m 214.6667,36 v -38.6667 h 66.6666 16.4445 c 2.7349,0 5.7186,0.4037 7.9533,-1.5087 2.6615,-2.2775 2.2689,-5.5529 2.2689,-8.7135 0,-7.2517 1.1174,-15.5226 -0.1,-22.6667 -0.3915,-2.2977 -2.1581,-4.2103 -4.345,-4.9537 -2.7907,-0.9488 -6.4189,-0.3796 -9.333,-0.3796 h -18.2222 -61.3333 v -37.7778 h 68 19.1111 c 2.7749,0 6.3067,0.5766 8.8824,-0.63 2.4174,-1.1326 3.7503,-3.4301 3.965,-6.0366 0.5538,-6.7231 0.041,-13.6973 0.041,-20.4445 0,-2.9616 0.5372,-6.6326 -0.951,-9.3316 -2.0621,-3.7396 -6.0197,-3.5573 -9.7157,-3.5573 h -23.1111 -84.4445 -20.8889 c -3.1311,0 -6.7428,-0.3741 -9.2335,1.9527 -2.9149,2.7233 -1.8776,8.235 -1.8776,11.8251 v 30.2222 110.6667 27.1111 c 0,3.5551 -0.8853,8.2565 1.8729,11.0161 3.9009,3.903 12.2203,2.3172 17.2382,2.3172 h 46.2223 64.8889 c 5.8781,0 18.2428,2.3685 21.4719,-4.0017 1.3603,-2.6836 0.7503,-6.4121 0.7503,-9.3316 0,-6.5115 0.1636,-13.0464 -0.01,-19.5556 -0.071,-2.7196 -1.0377,-5.1907 -3.5508,-6.5427 -2.7744,-1.4926 -6.2993,-1.0128 -9.3316,-1.0128 h -19.1111 -70.2222 m -312,504 h 207.5555 v 161.3333 40.8889 c 0,7.5035 -0.8388,15.2561 3.6537,21.7778 7.7044,11.1845 23.2951,8.4445 35.013,8.4445 h 62.2222 c 10.229,0 20.9325,0.9097 31.1111,-0.076 10.5029,-1.0165 18.0165,-8.505 19.0357,-19.0356 1.4063,-14.5299 0.075,-29.8407 0.075,-44.4444 v -88.4444 -268.4445 -112.8889 -30.6667 c 0,-6.2395 0.6488,-12.8235 -2.0078,-18.6666 -5.7108,-12.5608 -19.3459,-11.5556 -30.8811,-11.5556 h -83.5555 c -11.4747,0 -24.9824,-1.7181 -31.7984,9.7778 -3.8303,6.4603 -2.8683,14.1369 -2.8683,21.3333 v 40.4445 154.2222 H 672.0479 v -152.8889 -40.4444 c 0,-7.3117 0.9522,-15.1663 -2.8169,-21.7778 -6.8631,-12.0384 -20.4469,-10.6667 -32.2943,-10.6667 h -83.1111 c -11.5648,0 -26.1514,-1.2305 -31.8045,11.5556 -2.6092,5.9012 -1.9733,12.3784 -1.9733,18.6666 v 31.5556 113.7778 267.1111 88.4444 c 0,14.553 -0.9773,29.4862 0.04,44 0.7406,10.5682 8.7309,18.035 19.0714,19.0356 10.3236,0.9992 21.1806,0.076 31.5555,0.076 h 63.1111 c 12.2161,0 26.5954,2.245 34.5686,-9.3334 4.4694,-6.4902 3.6537,-14.3066 3.6537,-21.7778 v -40.4444 -160.8889 m 495.5555,-361.5875 c -23.0499,3.3023 -18.6666,27.9141 -18.6666,45.1431 v 141.7777 297.7778 72.8889 c 0,10.081 -2.0285,22.6966 5.8597,30.5846 8.6265,8.6268 24.0111,5.8599 35.0291,5.8599 h 64.4445 c 10.3314,0 21.7963,1.3988 32,-0.1951 23.0782,-3.6051 18.6667,-28.8531 18.6667,-46.0272 v -143.5555 -294.6667 -72.4444 c 0,-10.4124 2.1614,-22.5322 -5.7953,-30.6602 -9.0983,-9.2945 -23.7029,-6.6732 -35.5381,-6.6732 h -64 c -10.3868,0 -21.7214,-1.2823 -32,0.1903 m 488.8889,413.5875 c -3.7794,-7.5206 -5.4472,-16.8282 -7.8755,-24.8889 -4.8696,-16.1647 -9.7932,-32.3225 -14.8024,-48.4444 -14.933,-48.0609 -30.0486,-96.1415 -44.1773,-144.4445 -12.9599,-44.3072 -27.5388,-88.1419 -40.5118,-132.4444 -3.002,-10.252 -6.1207,-20.4905 -9.3689,-30.6667 -3.3883,-10.6152 -5.7571,-19.2815 -14.8196,-26.6246 -9.9968,-8.1 -23.5387,-6.2643 -35.5556,-6.2643 h -75.5556 c -11.6572,0 -26.3648,-0.8077 -30.335,13.3334 -2.9244,10.416 5.2429,25.1714 8.2373,35.1111 8.9621,29.7497 18.7108,59.2918 28.167,88.8889 34.8423,109.053 70.8112,217.9391 103.833,327.5555 9.446,31.3559 19.3895,62.6797 29.6536,93.7778 4.9002,14.8464 9.2376,29.6189 26.2219,34.1532 13.0183,3.4757 28.3934,1.4024 41.7778,1.4024 h 78.6667 c 14.9393,0 32.0657,2.4379 44.4441,-7.7622 9.5902,-7.9023 12.0635,-22.2971 15.5672,-33.5712 7.4251,-23.8923 15.2415,-47.6631 22.6666,-71.5555 28.2263,-90.8265 57.9943,-181.174 86.2223,-272 15.8094,-50.8685 33.6345,-101.2569 48.3704,-152.4445 2.6641,-9.2537 5.9928,-18.3127 8.6957,-27.5555 1.1157,-3.8152 3.0491,-8.4191 2.8293,-12.4445 -0.3067,-5.6159 -4.4252,-10.623 -8.7956,-13.8099 -8.3312,-6.0746 -23.956,-3.079 -33.7778,-3.079 h -69.7778 c -13.6722,0 -26.9323,0.021 -36.0449,12 -7.9988,10.515 -9.9249,26.2574 -13.8858,38.6667 -9.3646,29.3381 -17.9505,58.9566 -26.8337,88.4444 -17.9943,59.732 -35.8477,119.537 -54.358,179.1111 -6.6144,21.2885 -12.9896,42.6549 -19.4198,64 -3.1376,10.4153 -7.2534,20.9039 -9.4578,31.5556 m 497.3334,58.2222 v -117.7778 h 192.8889 48 c 7.8016,0 16.692,0.7286 23.1106,-4.5904 8.1394,-6.7449 7.556,-16.534 7.556,-26.0762 v -44.8889 c 0,-7.5219 0.8792,-15.6648 -0.1903,-23.1111 -1.0996,-7.6551 -6.1315,-14.8258 -13.5874,-17.467 -7.8594,-2.7842 -17.9805,-1.1997 -26.2223,-1.1997 h -52.8889 -178.6666 v -114.6667 h 197.7778 54.6666 c 8.4026,0 18.8809,1.7179 26.6667,-1.9971 7.242,-3.4557 11.0173,-11.5929 11.1094,-19.3362 0.2445,-20.5859 0,-41.1901 0,-61.7778 0,-8.8012 1.9336,-20.4249 -2.4525,-28.4444 -5.9173,-10.8195 -17.0243,-10.6667 -27.7697,-10.6667 h -67.5556 -245.3333 -60 c -9.5604,0 -19.8616,-1.1489 -27.4271,5.9842 -8.9803,8.467 -5.9063,24.684 -5.9063,35.7936 v 93.3333 335.1112 83.5555 c 0,10.9605 -2.5538,25.3329 5.5398,34.145 5.5479,6.0408 13.5599,6.2995 21.1269,6.2995 h 27.1111 131.1111 192 38.2223 c 10.4227,0 20.3873,-0.5706 25.6577,-11.1112 4.0408,-8.0816 2.3423,-18.7882 2.3423,-27.5555 v -57.3333 c 0,-9.0793 -0.8381,-18.4922 -9.7778,-23.4164 -8.0096,-4.4119 -18.2889,-2.8059 -27.1111,-2.8059 h -55.1043 -204.8889 m -561.3334,224.6331 c -13.5173,1.7762 -26.6391,4.1269 -38.6666,10.9893 -9.2788,5.2941 -17.3747,12.3568 -22.7232,21.711 -11.2467,19.6697 -9.4442,49.1612 8.0565,64.8116 17.4468,15.6024 42.85,19.8153 64.8889,24.7103 11.8072,2.6226 38.0146,7.6133 34.3693,24.7003 -3.2404,15.1892 -25.4495,17.1126 -37.9249,15.9245 -8.5618,-0.8153 -16.6881,-3.3177 -23.1108,-9.298 -3.8315,-3.5675 -5.85,-8.9757 -10.667,-11.3919 -7.369,-3.6964 -19.4735,-1.4568 -27.5555,-1.4568 -4.8575,0 -13.1291,-1.574 -17.3141,1.2795 -3.9369,2.6844 -2.7786,8.5221 -1.9459,12.4982 2.3121,11.0408 7.9224,20.3104 16.1489,27.9603 23.2444,21.6157 61.7364,24.2633 91.5555,19.8496 12.958,-1.9179 25.7427,-6.0019 36.8889,-12.9548 28.0929,-17.5243 39.1354,-62.194 11.5556,-85.8327 -17.1402,-14.6908 -41.4738,-17.7155 -62.6667,-22.5111 -11.7896,-2.6677 -37.5618,-6.7422 -36.3001,-23.4001 1.2537,-16.5521 22.066,-18.7526 34.9668,-16.3286 6.6661,1.2526 12.9477,4.7235 17.1598,10.1063 2.0838,2.6628 2.451,6.0816 5.5086,8.0024 3.2929,2.0688 7.8437,1.331 11.5538,1.331 h 24.8889 c 3.3772,0 8.6673,1.0043 11.5075,-1.1791 3.1196,-2.398 2.1063,-6.6256 1.4682,-9.932 -1.7,-8.8097 -6.5546,-16.7681 -12.2819,-23.5556 -18.192,-21.5599 -52.1932,-29.6037 -79.3605,-26.0336 m 578.2223,0 c -20.9803,2.7569 -42.2969,7.9121 -57.2579,24.2576 -19.9249,21.7691 -20.0755,49.5807 -20.0755,77.3316 0,28.2908 0.031,57.0045 20.52,79.1046 7.8353,8.4514 18.9114,14.0525 29.7022,17.6362 24.9486,8.2856 55.3056,7.8451 80,-1.2089 20.4445,-7.4957 38.5725,-22.9438 44.6313,-44.4208 1.4243,-5.0486 4.9877,-16.8464 0.9712,-21.2383 -1.9549,-2.1376 -4.7435,-1.8728 -7.3802,-1.8728 h -16.4445 -16.4444 c -2.7956,0 -5.9842,-0.3727 -8.4267,1.2795 -3.2849,2.2222 -3.7304,6.799 -4.9084,10.276 -1.5341,4.5282 -4.0154,8.8854 -7.2378,12.4271 -12.9614,14.2444 -42.8633,12.5911 -54.2001,-2.6493 -8.6096,-11.5742 -7.4492,-27.7088 -7.4492,-41.3333 0,-10.2913 -1.1504,-21.3546 0.1885,-31.5556 1.1357,-8.651 1.4321,-16.9232 6.5758,-24.4444 10.1415,-14.8295 33.8874,-16.8442 48.7912,-8.2947 5.8292,3.3441 9.8728,8.8116 12.3553,14.9613 1.5063,3.7316 2.2059,8.9332 5.2085,11.8138 2.7767,2.6641 7.8238,1.964 11.3251,1.964 h 26.2222 c 3.4736,0 8.0456,0.786 11.0276,-1.3926 3.449,-2.5197 2.1758,-7.4618 1.8613,-11.0518 -0.9551,-10.9063 -5.0736,-21.0471 -11.6117,-29.7778 -19.1971,-25.635 -56.9744,-35.8811 -87.9438,-31.8114 m -1602.2223,87.8114 h 0.4444 c 1.887,5.9624 6.0726,11.8832 9.1447,17.3333 5.7873,10.2667 11.5466,20.6441 16.9627,31.1111 2.6628,5.1463 5.8193,14.2249 11.6704,16.3852 5.8005,2.1417 19.6214,2.5558 24.8872,-0.9403 5.481,-3.6393 8.4565,-12.4583 11.4596,-18.1115 5.1304,-9.658 10.287,-19.3251 15.5915,-28.8889 2.8592,-5.155 6.871,-10.7791 8.5062,-16.4445 h 0.4444 v 75.5556 21.7778 c 0,3.5416 -0.6073,7.7426 0.6948,11.1093 1.7012,4.3989 6.4284,4.4462 10.4163,4.4462 9.4811,0 18.9635,0.045 28.4445,-4e-4 3.6354,-0.017 7.8011,-0.9334 9.0431,-4.8885 1.2965,-4.1282 0.2902,-9.911 0.2902,-14.2222 v -30.6667 -101.3333 -32.8889 c 0,-4.1259 1.1723,-9.7673 -2.2418,-12.7891 -2.8013,-2.4793 -6.7391,-1.8776 -10.2026,-1.8776 h -21.7778 c -3.7597,0 -7.6204,-0.3216 -10.6599,2.3173 -2.9057,2.5228 -4.4853,6.3959 -6.3539,9.6827 -3.6106,6.3512 -7.1309,12.754 -10.7304,19.1112 -7.2885,12.8726 -14.4896,25.7944 -21.7778,38.6666 -4.6813,8.2678 -10.3654,16.569 -14.0336,25.3334 h -0.8889 c -2.2896,-7.7843 -8.3081,-15.6107 -12.3196,-22.6667 -8.4861,-14.9269 -16.7449,-29.9853 -25.2709,-44.8889 -3.2938,-5.7578 -6.5081,-11.561 -9.7764,-17.3333 -1.575,-2.7817 -2.9105,-6.127 -5.5398,-8.0938 -3.3956,-2.5397 -7.541,-2.1285 -11.5377,-2.1285 h -21.3334 c -3.4764,0 -7.846,-0.6082 -10.3782,2.3688 -2.8082,3.3014 -1.6218,9.615 -1.6218,13.6312 v 33.7778 97.7778 30.6667 c 0,4.7391 -0.885,10.4965 0.237,15.1111 0.8818,3.6263 4.3172,5.1593 7.763,5.316 9.8823,0.4492 19.8844,0.017 29.7778,0.017 4.0116,0 8.5241,-0.03 10.2246,-4.4462 1.1836,-3.0737 0.4421,-7.4116 0.4421,-10.6649 v -22.2222 -76 m 232,78.2222 h 53.3333 15.1111 c 2.0768,0 5.1099,-0.5512 7.0522,0.2682 2.3714,1.0005 3.2874,5.9675 4.1429,8.1762 2.7739,7.1615 4.7361,16.2817 9.0488,22.6489 2.2904,3.3817 6.1676,4.0117 9.9784,4.0178 h 24 c 3.5815,0 8.1695,0.7483 11.5552,-0.5974 6.9671,-2.7689 2.4985,-11.0397 0.7006,-15.847 -5.5846,-14.9328 -10.8866,-29.9718 -16.512,-44.8889 -11.9733,-31.7496 -23.2247,-63.7726 -35.1107,-95.5556 -3.3161,-8.8669 -6.4622,-17.799 -9.7778,-26.6666 -1.392,-3.7227 -2.2725,-8.4176 -4.8684,-11.5141 -5.1364,-6.1274 -17.9788,-3.5971 -25.098,-3.5971 h -21.3334 c -3.6592,0 -7.8139,-0.5028 -11.1111,1.4345 -4.7243,2.7758 -5.8314,8.918 -7.6409,13.6767 -4.3773,11.511 -8.4793,23.1276 -12.7812,34.6666 -7.8876,21.1569 -15.6061,42.3774 -23.4363,63.5556 -7.2809,19.6923 -14.7214,39.339 -21.7825,59.1111 -2.0082,5.6233 -8.3083,15.8181 -6.4462,21.7778 2.2646,7.2482 17.3205,4.4444 23.1982,4.4444 6.818,0 17.4529,1.9792 23.5491,-1.5703 3.2654,-1.9013 4.1296,-5.7904 5.3621,-9.0963 2.9097,-7.8047 7.4546,-16.2392 8.8666,-24.4445 m 211.1111,-40.4444 h 0.4445 c 3.5932,7.0382 10.3566,13.4422 15.3669,19.5555 9.7757,11.9275 19.4195,23.9766 29.0772,36 5.0103,6.2374 10.6448,16.735 18.667,19.2116 4.7447,1.4646 10.2051,0.7884 15.1111,0.7884 h 27.1111 c 4.7165,0 11.0909,-0.1575 10.6135,-6.6666 -0.2078,-2.8334 -2.5487,-4.9918 -4.2027,-7.1112 l -11.1111,-14.2222 c -14.1085,-18.1078 -28.4577,-36.0351 -42.4637,-54.2222 -3.8984,-5.0621 -7.8808,-10.0586 -11.7917,-15.1111 -1.2357,-1.5964 -4.1827,-4.0912 -4.2463,-6.2222 -0.06,-1.9905 2.6675,-4.3321 3.8241,-5.7778 l 11.3779,-14.2222 39.4668,-49.3334 c 3.9172,-4.8962 13.5992,-13.0004 13.8072,-19.5555 0.1968,-6.2014 -6.1807,-6.2223 -10.6073,-6.2223 h -26.6667 c -4.5721,0 -9.7795,-0.6881 -14.2222,0.5152 -7.2725,1.9697 -12.209,11.2865 -16.7778,16.8182 -9.4994,11.5013 -18.8438,23.13 -28.2997,34.6666 -4.4775,5.4627 -11.0934,11.359 -14.0336,17.7778 -1.4189,-4.8005 -0.4445,-11.0008 -0.4445,-16 v -32.4444 c 0,-5.1046 1.6381,-13.7044 -1.1259,-18.1808 -2.3309,-3.775 -7.0646,-3.1526 -10.8741,-3.1526 h -28.8889 c -3.7648,3e-4 -8.1351,0.4432 -9.1581,4.8889 -1.5807,6.8696 -0.1752,15.6129 -0.1752,22.6667 v 47.1111 80.8889 25.3333 c 0,3.9302 -0.6903,8.6038 0.1749,12.4445 0.8404,3.7307 4.3177,5.2352 7.8251,5.3268 9.9113,0.2585 19.8627,0.01 29.7778,0.01 3.8231,0 8.7566,0.5005 11.2322,-3.1302 3.1772,-4.6597 1.2122,-14.9783 1.2122,-20.4253 v -52 m 188.4445,34.6666 v -39.5555 h 65.7777 16 c 2.733,0 5.6813,0.3216 7.9164,-1.5812 2.6158,-2.2272 2.3059,-5.5404 2.3059,-8.6411 0,-7.3276 1.4643,-16.4192 -0.1753,-23.5555 -0.5336,-2.3229 -2.4599,-4.2691 -4.7136,-4.9761 -7.7035,-2.4161 -19.0364,-0.3572 -27.1111,-0.3572 h -60 v -38.2223 h 68 18.2222 c 2.8473,0 6.3049,0.4927 8.8711,-1.0126 2.9477,-1.7291 3.1277,-4.8233 3.1289,-7.8763 v -19.5555 c 0,-2.7305 0.6235,-6.3807 -0.6475,-8.8872 -1.8446,-3.638 -5.6063,-3.5573 -9.1303,-3.5573 h -23.1111 -82.2222 -20.4445 c -3.233,0 -6.9987,-0.5243 -9.6831,1.6888 -3.3502,2.7622 -2.3169,8.2548 -2.3169,12.089 v 31.1111 111.1111 28.4445 c 0,3.5408 -0.921,8.5825 1.5196,11.5089 3.5347,4.2385 11.3771,2.7133 16.2582,2.7133 h 43.1111 66.6667 c 5.8146,0 18.7442,2.4885 21.7446,-4.0017 1.3654,-2.9536 0.9221,-6.6181 0.9221,-9.7761 0,-6.2163 0.1459,-12.4522 -0.01,-18.6666 -0.074,-3.0287 -0.7902,-5.8852 -3.5507,-7.5515 -2.3942,-1.4451 -5.7623,-0.893 -8.4427,-0.893 h -18.6667 -70.2222 m 184.4444,-29.3333 h 20.4445 c 2.318,0 6.2952,-0.7552 8.3498,0.4568 1.6923,0.9985 2.475,3.6513 3.3157,5.321 1.8756,3.7248 3.8687,7.4027 5.7827,11.1111 6.0613,11.7435 12.4982,23.3071 18.4417,35.1111 2.5111,4.987 5.0649,12.8689 9.8896,16.0137 4.1932,2.733 9.4624,2.2085 14.2205,2.2085 h 25.7777 c 4.3182,0 10.3549,0.2726 11.2788,-5.3333 0.6438,-3.9063 -3.1572,-8.3451 -4.9207,-11.5556 -5.232,-9.5256 -10.6011,-18.9822 -15.9473,-28.4444 -6.2867,-11.1272 -13.4512,-22.2036 -18.8552,-33.7778 40.8898,-13.926 46.4504,-74.7118 16,-101.2049 -25.6981,-22.358 -62.2121,-18.3507 -93.7778,-18.3507 h -36.8889 c -4.3346,0 -10.6159,-1.2005 -13.3292,3.129 -1.5865,2.5316 -0.893,6.4561 -0.893,9.3155 v 21.3333 79.5556 62.6666 c 0,5.4825 -2.3401,17.7158 2.7441,21.2691 4.6705,3.2644 14.457,1.3976 19.9226,1.3976 h 17.3333 c 3.0345,0 6.3799,0.1584 8.8422,-1.9531 4.1493,-3.5582 2.2689,-13.0925 2.2689,-18.0469 v -50.2222 m 388.8889,0.8889 c 20.3573,0 41.2843,1.4959 61.3333,-2.5781 15.0467,-3.0578 30.066,-10.0048 39.7032,-22.3108 18.0922,-23.1029 15.6287,-64.7973 -5.9254,-84.8492 -25.4344,-23.6619 -62.7103,-19.5953 -94.6666,-19.5953 h -38.2223 c -4.3796,0 -10.9093,-1.2899 -13.9325,2.7086 -1.9807,2.6196 -1.623,6.2081 -1.623,9.2914 v 19.1112 75.5555 66.2222 c 0,6.0326 -2.4642,19.2895 2.3687,23.7631 4.5752,4.235 16.258,2.0147 22.0757,2.0147 h 17.3334 c 3.1951,0 6.6688,0.2448 9.2496,-2.0147 4.1521,-3.6352 2.3059,-12.9935 2.3059,-17.9853 v -49.3333 M 1958.272,2045.676 c -6.204,1.1187 -7.862,5.6203 -9.8633,10.9046 -3.1873,8.4153 -6.1439,16.9184 -9.3333,25.3333 -14.5488,38.385 -28.2626,77.092 -42.6035,115.5555 -3.9154,10.5014 -7.638,21.079 -11.6187,31.5556 -1.4393,3.7878 -4.3668,9.1892 -1.1239,12.8407 2.7094,3.0512 7.3316,2.2704 10.9872,2.2704 h 23.5555 c 3.5773,0 7.9761,0.4577 11.1094,-1.6458 2.9568,-1.9848 3.8906,-5.4258 5.079,-8.5764 2.0106,-5.3307 4.021,-10.6617 6.0115,-16 0.8294,-2.2244 1.7762,-7.5803 4.1222,-8.6207 4.1597,-1.845 12.2361,-0.2682 16.789,-0.2682 h 40 12.8889 c 1.5059,0 3.8266,-0.4171 5.1476,0.4568 2.1256,1.4063 2.9388,6.1595 3.8316,8.4321 2.75,7 4.664,16.6003 9.1541,22.6476 2.6358,3.5499 7.2005,3.5746 11.2,3.5746 h 22.2223 c 3.5303,0 7.6762,0.5877 11.1111,-0.3151 8.2404,-2.1658 3.028,-11.982 1.1447,-17.0182 -6.4125,-17.1485 -12.658,-34.3616 -18.9462,-51.5556 -11.3808,-31.1189 -22.5151,-62.3598 -34.284,-93.3333 -2.9134,-7.6678 -5.7372,-15.3863 -8.4957,-23.1111 -1.4496,-4.0595 -2.4585,-8.5959 -6.0872,-11.3077 -4.0102,-2.9966 -9.9677,-2.0257 -14.665,-2.0257 -11.904,0 -25.6276,-1.9045 -37.3333,0.2066 m 392,157.5712 v -39.5555 h 65.3334 16 c 2.7289,0 5.71,0.3194 7.9756,-1.5196 2.6858,-2.1801 2.6908,-5.5481 2.691,-8.7027 7e-4,-7.1966 0.9262,-15.105 -0.1337,-22.2222 -0.4145,-2.7825 -1.9921,-5.3476 -4.7556,-6.2869 -2.6706,-0.9077 -6.1016,-0.3797 -8.8885,-0.3797 h -17.7777 -60.4445 v -38.2223 h 66.6667 18.6667 c 2.7912,0 6.3001,0.5526 8.8871,-0.6987 2.4401,-1.1806 3.7459,-3.7987 3.9603,-6.4124 0.5636,-6.8698 0.041,-13.9948 0.041,-20.8889 0,-2.9427 0.6018,-6.6766 -0.9288,-9.3316 -2.1419,-3.7157 -5.9935,-3.5573 -9.7378,-3.5573 h -22.2222 -83.1112 -20.4444 c -3.1556,0 -6.7849,-0.4978 -9.2739,1.8776 -3.1376,2.9948 -2.2817,8.4323 -2.2817,12.3447 v 30.6666 111.5556 28 c 0,3.8368 -0.7806,8.7995 2.0148,11.9049 3.579,3.9762 12.2967,2.3173 17.0964,2.3173 h 47.1111 62.2222 c 5.6929,0 17.4811,2.2841 20.8489,-3.5573 1.5306,-2.6549 0.9289,-6.3889 0.9289,-9.3316 0,-6.6662 0.032,-13.3337 -5e-4,-20 -0.015,-2.9815 -0.6794,-5.7695 -3.5616,-7.2495 -2.5638,-1.3169 -6.0901,-0.7505 -8.8824,-0.7505 h -19.1111 -68.8889 m -965.7778,-69.7778 v -48.4444 h 28.8889 c 6.7737,0 13.938,-0.2719 20,3.3223 14.5267,8.613 15.3349,34.3973 -0.4444,42.2882 -6.2806,3.1408 -13.1949,2.8339 -20,2.8339 h -28.4445 m 388,2.2223 v -50.6667 h 28 c 6.502,0 13.0326,-0.3984 19.1111,2.3611 16.4776,7.4805 18.3634,35.2411 2.6667,44.5482 -6.4583,3.8294 -14.0813,3.7574 -21.3333,3.7574 h -28.4445 m -933.3333,-41.7778 14.0854,39.5555 12.1368,34.6667 h -52.8889 c 4.6777,-17.138 11.9569,-33.9271 17.9146,-50.6667 2.5418,-7.1417 4.2148,-17.4908 8.7521,-23.5555 m 1143.1111,0 26.2222,74.2222 h -52.8889 c 3.9775,-17.1931 12.0842,-33.9609 17.7765,-50.6667 1.7229,-5.0562 3.6426,-10.0451 5.3347,-15.1111 0.9075,-2.7174 1.6506,-6.2834 3.5555,-8.4444 z"
     id="path3" /></svg>
