<?xml version="1.0" encoding="UTF-8" standalone="no"?>
<svg
   width="1597.6139"
   height="204"
   viewBox="0 0 1597.6139 204"
   fill="none"
   version="1.1"
   id="svg20"
   sodipodi:docname="logo-dark.svg"
   inkscape:version="1.4.3 (0d15f75042, 2025-12-25)"
   xmlns:inkscape="http://www.inkscape.org/namespaces/inkscape"
   xmlns:sodipodi="http://sodipodi.sourceforge.net/DTD/sodipodi-0.dtd"
   xmlns="http://www.w3.org/2000/svg"
   xmlns:svg="http://www.w3.org/2000/svg">
  <defs
     id="defs20" />
  <sodipodi:namedview
     id="namedview20"
     pagecolor="#000000"
     bordercolor="#000000"
     borderopacity="0.25"
     inkscape:showpageshadow="2"
     inkscape:pageopacity="0.0"
     inkscape:pagecheckerboard="0"
     inkscape:deskcolor="#d1d1d1"
     inkscape:zoom="0.56075834"
     inkscape:cx="-196.16293"
     inkscape:cy="89.164969"
     inkscape:window-width="1536"
     inkscape:window-height="795"
     inkscape:window-x="0"
     inkscape:window-y="0"
     inkscape:window-maximized="1"
     inkscape:current-layer="svg20" />
  <path
     d="m 60.1507,78.6818 c 3.4441,-1.9801 7.6875,-1.9801 11.1317,0 l 31.5846,18.1584 c 3.444,1.9801 5.566,5.6398 5.566,9.5998 v 36.317 c 0,3.96 -2.122,7.619 -5.566,9.599 l -31.5846,18.159 c -3.4442,1.98 -7.6876,1.98 -11.1317,0 L 28.5658,152.356 C 25.1217,150.376 23,146.717 23,142.757 V 106.44 c 0,-3.96 2.1217,-7.6197 5.5658,-9.5998 z"
     fill="#ffffff"
     id="path1"
     style="fill:#ffe600;fill-opacity:1" />
  <path
     d="m 128.185,125.701 c -0.943,0 -1.715,-0.302 -2.316,-0.904 -0.6,-0.603 -0.9,-1.378 -0.9,-2.325 V 38.5353 c 0,-0.947 0.3,-1.7218 0.9,-2.3244 0.686,-0.6026 1.458,-0.904 2.316,-0.904 h 16.597 c 0.943,0 1.715,0.3014 2.316,0.904 0.686,0.6026 1.029,1.3774 1.029,2.3244 v 31.1212 h 31.65 V 38.5353 c 0,-0.947 0.3,-1.7218 0.901,-2.3244 0.6,-0.6026 1.372,-0.904 2.315,-0.904 h 16.597 c 0.944,0 1.716,0.3014 2.316,0.904 0.601,0.6026 0.901,1.3774 0.901,2.3244 v 41.9685 41.9682 c 0,0.947 -0.3,1.722 -0.901,2.325 -0.6,0.602 -1.372,0.904 -2.316,0.904 h -16.597 c -0.943,0 -1.715,-0.302 -2.315,-0.904 -0.601,-0.603 -0.901,-1.378 -0.901,-2.325 V 90.318 h -31.65 v 32.154 c 0,0.947 -0.343,1.722 -1.029,2.325 -0.601,0.602 -1.373,0.904 -2.316,0.904 z"
     fill="#ffffff"
     id="path2" />
  <path
     d="m 224.05,125.701 c -0.857,0 -1.629,-0.302 -2.315,-0.904 -0.601,-0.689 -0.901,-1.464 -0.901,-2.325 V 38.5353 c 0,-0.947 0.3,-1.7218 0.901,-2.3244 0.686,-0.6026 1.458,-0.904 2.315,-0.904 h 17.241 c 0.943,0 1.715,0.3014 2.315,0.904 0.687,0.6026 1.03,1.3774 1.03,2.3244 v 83.9367 c 0,0.947 -0.343,1.722 -1.03,2.325 -0.6,0.602 -1.372,0.904 -2.315,0.904 z"
     fill="#ffffff"
     id="path3" />
  <path
     d="m 288.279,125.701 c -2.745,0 -4.503,-1.292 -5.275,-3.874 L 256.758,39.181 256.5,38.0188 c 0,-0.6888 0.258,-1.2914 0.772,-1.8079 0.601,-0.6026 1.287,-0.904 2.059,-0.904 h 15.954 c 1.2,0 2.187,0.3444 2.959,1.0331 0.857,0.6887 1.415,1.4635 1.672,2.3244 l 18.27,59.6599 18.14,-59.6599 c 0.258,-0.8609 0.772,-1.6357 1.544,-2.3244 0.858,-0.6887 1.887,-1.0331 3.088,-1.0331 h 16.082 c 0.687,0 1.287,0.3014 1.802,0.904 0.6,0.5165 0.9,1.1191 0.9,1.8079 l -0.257,1.1622 -26.246,82.646 c -0.772,2.582 -2.531,3.874 -5.275,3.874 z"
     fill="#ffffff"
     id="path4" />
  <path
     d="m 354.97,125.701 c -0.858,0 -1.629,-0.302 -2.316,-0.904 -0.6,-0.689 -0.9,-1.464 -0.9,-2.325 V 38.5353 c 0,-0.947 0.3,-1.7218 0.9,-2.3244 0.687,-0.6026 1.458,-0.904 2.316,-0.904 h 60.084 c 0.943,0 1.715,0.3014 2.315,0.904 0.601,0.6026 0.901,1.3774 0.901,2.3244 v 12.1386 c 0,0.8609 -0.3,1.6357 -0.901,2.3244 -0.6,0.6026 -1.372,0.9039 -2.315,0.9039 h -41.042 v 17.4331 h 38.211 c 0.944,0 1.716,0.3443 2.316,1.0331 0.6,0.6026 0.901,1.3774 0.901,2.3244 v 11.2346 c 0,0.8609 -0.301,1.6357 -0.901,2.3244 -0.6,0.6026 -1.372,0.9039 -2.316,0.9039 h -38.211 v 17.9493 h 42.071 c 0.943,0 1.715,0.302 2.316,0.904 0.6,0.603 0.9,1.378 0.9,2.325 v 12.138 c 0,0.861 -0.3,1.636 -0.9,2.325 -0.601,0.602 -1.373,0.904 -2.316,0.904 z"
     fill="#ffffff"
     id="path5" />
  <path
     d="m 32.9946,65.6219 c -0.2922,0 -0.5552,-0.1011 -0.789,-0.3032 -0.2045,-0.2309 -0.3068,-0.4908 -0.3068,-0.7795 V 42.1061 h -7.8025 c -0.2922,0 -0.5552,-0.101 -0.789,-0.3031 -0.2046,-0.231 -0.3069,-0.4908 -0.3069,-0.7795 v -4.6339 c 0,-0.3176 0.1023,-0.5774 0.3069,-0.7795 0.2338,-0.2021 0.4968,-0.3032 0.789,-0.3032 h 23.5828 c 0.3215,0 0.5845,0.1011 0.7891,0.3032 0.2045,0.2021 0.3068,0.4619 0.3068,0.7795 v 4.6339 c 0,0.3175 -0.1023,0.5774 -0.3068,0.7795 -0.2046,0.2021 -0.4676,0.3031 -0.7891,0.3031 h -7.8025 v 22.4331 c 0,0.2887 -0.1022,0.5486 -0.3068,0.7795 -0.2046,0.2021 -0.4676,0.3032 -0.789,0.3032 z"
     fill="#ffffff"
     id="path6" />
  <path
     d="m 53.8546,65.6219 c -0.3214,0 -0.5844,-0.1011 -0.789,-0.3032 -0.2045,-0.2021 -0.3068,-0.4619 -0.3068,-0.7795 V 36.3896 c 0,-0.3176 0.1023,-0.5774 0.3068,-0.7795 0.2338,-0.2021 0.4968,-0.3032 0.789,-0.3032 h 5.6547 c 0.3214,0 0.5844,0.1011 0.789,0.3032 0.2338,0.2021 0.3507,0.4619 0.3507,0.7795 v 10.437 h 10.7832 v -10.437 c 0,-0.3176 0.1023,-0.5774 0.3068,-0.7795 0.2046,-0.2021 0.4676,-0.3032 0.7891,-0.3032 h 5.6546 c 0.3214,0 0.5844,0.1011 0.789,0.3032 0.2046,0.2021 0.3068,0.4619 0.3068,0.7795 v 28.1496 c 0,0.3176 -0.1022,0.5774 -0.3068,0.7795 -0.2046,0.2021 -0.4676,0.3032 -0.789,0.3032 h -5.6546 c -0.3215,0 -0.5845,-0.1011 -0.7891,-0.3032 -0.2045,-0.2021 -0.3068,-0.4619 -0.3068,-0.7795 V 53.7557 H 60.649 v 10.7835 c 0,0.3176 -0.1169,0.5774 -0.3507,0.7795 -0.2046,0.2021 -0.4676,0.3032 -0.789,0.3032 z"
     fill="#ffffff"
     id="path7" />
  <path
     d="m 86.5163,65.6219 c -0.2922,0 -0.5552,-0.1011 -0.789,-0.3032 -0.2045,-0.2309 -0.3068,-0.4908 -0.3068,-0.7795 V 36.3896 c 0,-0.3176 0.1023,-0.5774 0.3068,-0.7795 0.2338,-0.2021 0.4968,-0.3032 0.789,-0.3032 h 20.4707 c 0.321,0 0.584,0.1011 0.789,0.3032 0.205,0.2021 0.307,0.4619 0.307,0.7795 v 4.0709 c 0,0.2887 -0.102,0.5485 -0.307,0.7795 -0.205,0.2021 -0.468,0.3031 -0.789,0.3031 H 93.0038 v 5.8465 h 13.0192 c 0.321,0 0.584,0.1155 0.789,0.3465 0.204,0.2021 0.306,0.4619 0.306,0.7795 v 3.7677 c 0,0.2887 -0.102,0.5486 -0.306,0.7795 -0.205,0.2021 -0.468,0.3032 -0.789,0.3032 H 93.0038 v 6.0197 h 14.3342 c 0.321,0 0.584,0.101 0.789,0.3031 0.204,0.2021 0.306,0.462 0.306,0.7795 v 4.0709 c 0,0.2887 -0.102,0.5486 -0.306,0.7795 -0.205,0.2021 -0.468,0.3032 -0.789,0.3032 z"
     fill="#ffffff"
     id="path8" />
  <path
     d="m 124.957,171.579 c -0.291,0 -0.553,-0.098 -0.785,-0.295 -0.204,-0.224 -0.306,-0.477 -0.306,-0.758 v -27.367 c 0,-0.309 0.102,-0.562 0.306,-0.758 0.232,-0.197 0.494,-0.295 0.785,-0.295 h 4.714 c 0.698,0 1.207,0.309 1.527,0.926 l 7.682,13.263 7.681,-13.263 c 0.32,-0.617 0.829,-0.926 1.528,-0.926 h 4.67 c 0.32,0 0.582,0.098 0.785,0.295 0.233,0.196 0.35,0.449 0.35,0.758 v 27.367 c 0,0.309 -0.117,0.562 -0.35,0.758 -0.203,0.197 -0.465,0.295 -0.785,0.295 h -5.194 c -0.32,0 -0.596,-0.098 -0.829,-0.295 -0.204,-0.196 -0.306,-0.449 -0.306,-0.758 v -15.789 l -4.888,8.8 c -0.378,0.646 -0.887,0.968 -1.527,0.968 h -2.27 c -0.378,0 -0.684,-0.084 -0.916,-0.252 -0.233,-0.169 -0.437,-0.407 -0.612,-0.716 l -4.931,-8.8 v 15.789 c 0,0.281 -0.102,0.534 -0.306,0.758 -0.204,0.197 -0.465,0.295 -0.785,0.295 z"
     fill="#ffffff"
     id="path9" />
  <path
     d="m 158.263,171.579 c -0.232,0 -0.451,-0.084 -0.654,-0.253 -0.175,-0.196 -0.262,-0.407 -0.262,-0.631 0,-0.169 0.014,-0.295 0.044,-0.379 l 10.256,-27.031 c 0.087,-0.337 0.276,-0.618 0.567,-0.842 0.291,-0.225 0.67,-0.337 1.135,-0.337 h 6.46 c 0.465,0 0.843,0.112 1.134,0.337 0.291,0.224 0.48,0.505 0.568,0.842 l 10.212,27.031 0.088,0.379 c 0,0.224 -0.102,0.435 -0.306,0.631 -0.174,0.169 -0.393,0.253 -0.654,0.253 h -5.369 c -0.698,0 -1.164,-0.295 -1.396,-0.884 L 178.384,166.4 H 166.73 l -1.658,4.295 c -0.233,0.589 -0.713,0.884 -1.44,0.884 z m 18.375,-11.242 -4.059,-11.115 -4.059,11.115 z"
     fill="#ffffff"
     id="path10" />
  <path
     d="m 192.342,171.579 c -0.291,0 -0.553,-0.098 -0.786,-0.295 -0.203,-0.224 -0.305,-0.477 -0.305,-0.758 v -27.367 c 0,-0.309 0.102,-0.562 0.305,-0.758 0.233,-0.197 0.495,-0.295 0.786,-0.295 h 5.499 c 0.32,0 0.582,0.098 0.786,0.295 0.203,0.196 0.305,0.449 0.305,0.758 v 9.347 l 8.075,-9.6 c 0.349,-0.533 0.916,-0.8 1.702,-0.8 h 6.284 c 0.262,0 0.481,0.098 0.655,0.295 0.175,0.168 0.262,0.365 0.262,0.589 0,0.197 -0.044,0.365 -0.131,0.505 l -10.475,12.716 11.261,13.978 c 0.116,0.113 0.174,0.281 0.174,0.506 0,0.224 -0.087,0.435 -0.262,0.631 -0.174,0.169 -0.392,0.253 -0.654,0.253 h -6.503 c -0.699,0 -1.281,-0.281 -1.746,-0.842 l -8.642,-10.4 v 10.189 c 0,0.309 -0.102,0.562 -0.305,0.758 -0.204,0.197 -0.466,0.295 -0.786,0.295 z"
     fill="#ffffff"
     id="path11" />
  <path
     d="m 221.282,171.579 c -0.291,0 -0.553,-0.098 -0.786,-0.295 -0.203,-0.224 -0.305,-0.477 -0.305,-0.758 v -27.367 c 0,-0.309 0.102,-0.562 0.305,-0.758 0.233,-0.197 0.495,-0.295 0.786,-0.295 h 20.382 c 0.32,0 0.582,0.098 0.786,0.295 0.203,0.196 0.305,0.449 0.305,0.758 v 3.957 c 0,0.281 -0.102,0.534 -0.305,0.758 -0.204,0.197 -0.466,0.295 -0.786,0.295 h -13.923 v 5.684 h 12.963 c 0.32,0 0.582,0.112 0.785,0.337 0.204,0.196 0.306,0.449 0.306,0.758 v 3.663 c 0,0.281 -0.102,0.533 -0.306,0.758 -0.203,0.196 -0.465,0.294 -0.785,0.294 h -12.963 v 5.853 h 14.272 c 0.32,0 0.582,0.098 0.786,0.295 0.203,0.196 0.305,0.449 0.305,0.758 v 3.957 c 0,0.281 -0.102,0.534 -0.305,0.758 -0.204,0.197 -0.466,0.295 -0.786,0.295 z"
     fill="#ffffff"
     id="path12" />
  <path
     d="m 249.157,171.579 c -0.291,0 -0.553,-0.098 -0.786,-0.295 -0.204,-0.224 -0.306,-0.477 -0.306,-0.758 v -27.367 c 0,-0.309 0.102,-0.562 0.306,-0.758 0.233,-0.197 0.495,-0.295 0.786,-0.295 h 11.871 c 3.812,0 6.779,0.842 8.903,2.526 2.153,1.656 3.23,4.014 3.23,7.074 0,1.965 -0.48,3.635 -1.44,5.01 -0.96,1.376 -2.284,2.428 -3.972,3.158 l 5.979,10.358 c 0.088,0.168 0.131,0.322 0.131,0.463 0,0.224 -0.101,0.435 -0.305,0.631 -0.175,0.169 -0.378,0.253 -0.611,0.253 h -5.805 c -0.844,0 -1.44,-0.379 -1.789,-1.137 l -4.976,-9.263 h -4.452 v 9.347 c 0,0.309 -0.116,0.562 -0.349,0.758 -0.203,0.197 -0.465,0.295 -0.785,0.295 z M 260.941,155.2 c 1.338,0 2.356,-0.308 3.055,-0.926 0.698,-0.645 1.047,-1.53 1.047,-2.652 0,-1.123 -0.349,-2.007 -1.047,-2.653 -0.67,-0.674 -1.688,-1.011 -3.055,-1.011 h -5.02 v 7.242 z"
     fill="#ffffff"
     id="path13" />
  <path
     d="m 289.633,172 c -2.764,0 -5.136,-0.393 -7.114,-1.179 -1.979,-0.786 -3.477,-1.81 -4.496,-3.074 -0.989,-1.291 -1.513,-2.694 -1.571,-4.21 0,-0.225 0.087,-0.421 0.262,-0.589 0.204,-0.197 0.436,-0.295 0.698,-0.295 h 5.5 c 0.349,0 0.625,0.07 0.829,0.21 0.233,0.113 0.465,0.295 0.698,0.548 0.378,0.73 0.989,1.333 1.833,1.81 0.844,0.477 1.964,0.716 3.361,0.716 1.658,0 2.924,-0.253 3.797,-0.758 0.873,-0.505 1.309,-1.193 1.309,-2.063 0,-0.618 -0.233,-1.123 -0.698,-1.516 -0.437,-0.393 -1.135,-0.744 -2.095,-1.052 -0.96,-0.309 -2.386,-0.66 -4.277,-1.053 -3.492,-0.702 -6.11,-1.726 -7.856,-3.074 -1.717,-1.375 -2.575,-3.326 -2.575,-5.852 0,-1.712 0.494,-3.242 1.484,-4.589 0.989,-1.348 2.4,-2.4 4.233,-3.158 1.833,-0.758 3.972,-1.137 6.416,-1.137 2.531,0 4.728,0.421 6.59,1.263 1.862,0.842 3.274,1.909 4.234,3.2 0.989,1.263 1.513,2.512 1.571,3.747 0,0.253 -0.087,0.463 -0.262,0.632 -0.174,0.168 -0.393,0.252 -0.655,0.252 h -5.761 c -0.349,0 -0.64,-0.056 -0.873,-0.168 -0.203,-0.112 -0.392,-0.295 -0.567,-0.547 -0.175,-0.646 -0.655,-1.193 -1.44,-1.642 -0.757,-0.449 -1.702,-0.674 -2.837,-0.674 -1.309,0 -2.313,0.225 -3.012,0.674 -0.698,0.449 -1.047,1.108 -1.047,1.979 0,0.589 0.189,1.08 0.567,1.473 0.408,0.393 1.048,0.758 1.921,1.095 0.902,0.309 2.182,0.631 3.84,0.968 2.706,0.477 4.86,1.081 6.46,1.811 1.629,0.701 2.822,1.628 3.579,2.779 0.756,1.122 1.134,2.54 1.134,4.252 0,1.881 -0.567,3.523 -1.702,4.926 -1.105,1.376 -2.662,2.442 -4.67,3.2 -1.978,0.73 -4.248,1.095 -6.808,1.095 z"
     fill="#ffffff"
     id="path14" />
  <path
     d="m 308.273,171.579 c -0.291,0 -0.553,-0.098 -0.786,-0.295 -0.204,-0.224 -0.305,-0.477 -0.305,-0.758 v -27.367 c 0,-0.309 0.101,-0.562 0.305,-0.758 0.233,-0.197 0.495,-0.295 0.786,-0.295 h 12.22 c 3.725,0 6.649,0.828 8.773,2.484 2.153,1.656 3.229,4.07 3.229,7.242 0,3.144 -1.062,5.516 -3.186,7.116 -2.124,1.572 -5.062,2.357 -8.816,2.357 H 315.3 v 9.221 c 0,0.309 -0.117,0.562 -0.35,0.758 -0.203,0.197 -0.465,0.295 -0.785,0.295 z m 12.002,-16.084 c 1.28,0 2.284,-0.309 3.011,-0.926 0.728,-0.646 1.092,-1.586 1.092,-2.821 0,-1.151 -0.35,-2.063 -1.048,-2.737 -0.669,-0.702 -1.687,-1.053 -3.055,-1.053 h -5.106 v 7.537 z"
     fill="#ffffff"
     id="path15" />
  <path
     d="m 332.842,171.579 c -0.233,0 -0.451,-0.084 -0.655,-0.253 -0.175,-0.196 -0.262,-0.407 -0.262,-0.631 0,-0.169 0.015,-0.295 0.044,-0.379 l 10.256,-27.031 c 0.087,-0.337 0.277,-0.618 0.567,-0.842 0.291,-0.225 0.67,-0.337 1.135,-0.337 h 6.46 c 0.465,0 0.843,0.112 1.134,0.337 0.291,0.224 0.48,0.505 0.568,0.842 l 10.213,27.031 0.087,0.379 c 0,0.224 -0.102,0.435 -0.306,0.631 -0.174,0.169 -0.392,0.253 -0.654,0.253 h -5.369 c -0.698,0 -1.163,-0.295 -1.396,-0.884 l -1.702,-4.295 h -11.653 l -1.659,4.295 c -0.233,0.589 -0.713,0.884 -1.44,0.884 z m 18.374,-11.242 -4.059,-11.115 -4.059,11.115 z"
     fill="#ffffff"
     id="path16" />
  <path
     d="m 377.716,172 c -4.161,0 -7.42,-0.968 -9.777,-2.905 -2.327,-1.965 -3.564,-4.8 -3.71,-8.505 -0.029,-0.758 -0.043,-1.993 -0.043,-3.705 0,-1.741 0.014,-3.004 0.043,-3.79 0.146,-3.649 1.412,-6.456 3.798,-8.421 2.385,-1.993 5.615,-2.989 9.689,-2.989 2.56,0 4.859,0.421 6.895,1.263 2.037,0.814 3.638,1.993 4.801,3.537 1.193,1.516 1.804,3.298 1.833,5.347 v 0.084 c 0,0.225 -0.101,0.421 -0.305,0.59 -0.175,0.14 -0.378,0.21 -0.611,0.21 h -5.892 c -0.378,0 -0.669,-0.07 -0.873,-0.21 -0.204,-0.169 -0.378,-0.463 -0.524,-0.884 -0.407,-1.432 -1.047,-2.428 -1.92,-2.99 -0.873,-0.589 -2.022,-0.884 -3.448,-0.884 -3.433,0 -5.208,1.853 -5.325,5.558 -0.029,0.758 -0.043,1.922 -0.043,3.494 0,1.572 0.014,2.765 0.043,3.579 0.117,3.705 1.892,5.558 5.325,5.558 1.426,0 2.59,-0.295 3.492,-0.884 0.902,-0.618 1.527,-1.614 1.876,-2.99 0.117,-0.421 0.277,-0.701 0.48,-0.842 0.204,-0.168 0.51,-0.252 0.917,-0.252 h 5.892 c 0.262,0 0.48,0.084 0.655,0.252 0.203,0.169 0.291,0.379 0.261,0.632 -0.029,2.049 -0.64,3.845 -1.833,5.389 -1.163,1.516 -2.764,2.695 -4.801,3.537 -2.036,0.814 -4.335,1.221 -6.895,1.221 z"
     fill="#ffffff"
     id="path17" />
  <path
     d="m 396.926,171.579 c -0.291,0 -0.553,-0.098 -0.786,-0.295 -0.204,-0.224 -0.305,-0.477 -0.305,-0.758 v -27.367 c 0,-0.309 0.101,-0.562 0.305,-0.758 0.233,-0.197 0.495,-0.295 0.786,-0.295 h 20.382 c 0.32,0 0.582,0.098 0.785,0.295 0.204,0.196 0.306,0.449 0.306,0.758 v 3.957 c 0,0.281 -0.102,0.534 -0.306,0.758 -0.203,0.197 -0.465,0.295 -0.785,0.295 h -13.923 v 5.684 h 12.963 c 0.32,0 0.581,0.112 0.785,0.337 0.204,0.196 0.306,0.449 0.306,0.758 v 3.663 c 0,0.281 -0.102,0.533 -0.306,0.758 -0.204,0.196 -0.465,0.294 -0.785,0.294 h -12.963 v 5.853 h 14.272 c 0.32,0 0.582,0.098 0.785,0.295 0.204,0.196 0.306,0.449 0.306,0.758 v 3.957 c 0,0.281 -0.102,0.534 -0.306,0.758 -0.203,0.197 -0.465,0.295 -0.785,0.295 z"
     fill="#ffffff"
     id="path18" />
  <path
     d="M 470,2 V 202"
     stroke="#ffffff"
     stroke-width="4"
     stroke-linecap="round"
     id="path19" />
  <path
     style="font-weight:bold;font-size:158.861px;font-family:Rubik;-inkscape-font-specification:'Rubik, Bold';fill:#ffffff;stroke-width:100.07"
     d="m 565.84677,153.87976 q -14.93294,0 -25.73548,-4.92469 -10.80255,-4.92469 -16.83927,-14.45635 -5.87786,-9.53166 -6.5133,-23.67029 -0.15886,-6.5133 -0.15886,-13.979763 0,-7.466467 0.15886,-14.29749 0.63544,-13.820906 6.67216,-23.511427 6.03672,-9.69052 16.83927,-14.615211 10.80254,-4.924691 25.57662,-4.924691 10.48482,0 19.38104,2.700637 8.89621,2.541776 15.56837,7.625328 6.67217,4.924691 10.32597,12.073435 3.81266,6.989884 3.97152,15.8861 0.15887,1.429748 -0.95316,2.382914 -0.95317,0.953166 -2.38292,0.953166 h -21.44623 q -2.06519,0 -3.17722,-0.794305 -1.11203,-0.953166 -1.90633,-3.33608 -2.22406,-8.419633 -7.30761,-11.437992 -4.92469,-3.17722 -12.23229,-3.17722 -8.73736,0 -13.82091,4.924691 -5.08355,4.76583 -5.56014,16.04496 -0.47658,13.026602 0,26.688648 0.47659,11.27913 5.56014,16.20382 5.08355,4.76583 13.82091,4.76583 7.3076,0 12.39115,-3.17722 5.08355,-3.17722 7.14875,-11.43799 0.63544,-2.38292 1.74747,-3.17722 1.27089,-0.95317 3.33608,-0.95317 h 21.44623 q 1.42975,0 2.38292,0.95317 1.11203,0.95316 0.95316,2.38291 -0.15886,8.89622 -3.97152,16.04496 -3.6538,6.98989 -10.32597,12.07344 -6.67216,4.92469 -15.56837,7.62533 -8.89622,2.54177 -19.38104,2.54177 z m 69.89878,-1.58861 q -1.74747,0 -2.8595,-1.11202 -1.11203,-1.11203 -1.11203,-2.8595 V 45.059983 q 0,-1.747471 1.11203,-2.859498 1.11203,-1.112027 2.8595,-1.112027 h 20.49307 q 1.74747,0 2.8595,1.112027 1.27088,1.112027 1.27088,2.859498 v 38.285499 h 39.07981 V 45.059983 q 0,-1.747471 1.11202,-2.859498 1.11203,-1.112027 2.8595,-1.112027 h 20.49307 q 1.74747,0 2.8595,1.112027 1.11203,1.112027 1.11203,2.859498 V 148.31963 q 0,1.58861 -1.11203,2.8595 -1.11203,1.11202 -2.8595,1.11202 h -20.49307 q -1.74747,0 -2.8595,-1.11202 -1.11202,-1.27089 -1.11202,-2.8595 V 108.76324 H 660.369 v 39.55639 q 0,1.58861 -1.27088,2.8595 -1.11203,1.11202 -2.8595,1.11202 z m 108.02561,0 q -1.27089,0 -2.38292,-0.95316 -0.95317,-1.11203 -0.95317,-2.38292 0,-0.7943 0.15887,-1.42975 L 777.92627,45.536566 q 0.47658,-1.747471 1.90633,-3.018359 1.58861,-1.429749 4.28925,-1.429749 h 23.51142 q 2.70064,0 4.13039,1.429749 1.58861,1.270888 2.06519,3.018359 l 37.17347,101.988754 q 0.31773,0.63545 0.31773,1.42975 0,1.27089 -1.11203,2.38292 -0.95317,0.95316 -2.38291,0.95316 H 828.2852 q -2.38291,0 -3.6538,-1.11202 -1.11203,-1.27089 -1.42975,-2.22406 l -6.19558,-16.20382 h -42.41588 l -6.03672,16.20382 q -0.31772,0.95317 -1.42975,2.22406 -1.11203,1.11202 -3.81266,1.11202 z m 37.33233,-42.41588 h 29.54814 L 795.87756,67.935966 Z m 86.73803,42.41588 q -1.74747,0 -2.8595,-1.11202 -1.11203,-1.27089 -1.11203,-2.8595 V 45.059983 q 0,-1.747471 1.11203,-2.859498 1.11203,-1.112027 2.8595,-1.112027 h 20.96965 q 1.74747,0 2.8595,1.112027 1.11203,1.112027 1.11203,2.859498 v 83.243157 h 48.13488 q 1.74747,0 2.85949,1.27089 1.11203,1.11203 1.11203,2.8595 v 15.8861 q 0,1.58861 -1.11203,2.8595 -1.11202,1.11202 -2.85949,1.11202 z m 94.84003,0 q -1.74747,0 -2.8595,-1.11202 -1.11203,-1.27089 -1.11203,-2.8595 V 45.059983 q 0,-1.747471 1.11203,-2.859498 1.11203,-1.112027 2.8595,-1.112027 h 20.96965 q 1.74747,0 2.8595,1.112027 1.11202,1.112027 1.11202,2.859498 v 83.243157 h 48.13488 q 1.7475,0 2.8595,1.27089 1.112,1.11203 1.112,2.8595 v 15.8861 q 0,1.58861 -1.112,2.8595 -1.112,1.11202 -2.8595,1.11202 z m 94.84005,0 q -1.7475,0 -2.8595,-1.11202 -1.1121,-1.27089 -1.1121,-2.8595 V 45.059983 q 0,-1.747471 1.1121,-2.859498 1.112,-1.112027 2.8595,-1.112027 h 74.1881 q 1.7474,0 2.8595,1.112027 1.112,1.112027 1.112,2.859498 v 14.932933 q 0,1.747471 -1.112,2.859498 -1.1121,1.112027 -2.8595,1.112027 h -50.6767 v 21.446234 h 47.1817 q 1.7475,0 2.8595,1.270888 1.112,1.112027 1.112,2.859498 v 13.820909 q 0,1.58861 -1.112,2.8595 -1.112,1.11202 -2.8595,1.11202 h -47.1817 v 22.08168 h 51.9475 q 1.7475,0 2.8595,1.11203 1.1121,1.11202 1.1121,2.85949 v 14.93294 q 0,1.58861 -1.1121,2.8595 -1.112,1.11202 -2.8595,1.11202 z m 101.5122,0 q -1.7475,0 -2.8595,-1.11202 -1.112,-1.27089 -1.112,-2.8595 V 45.059983 q 0,-1.747471 1.112,-2.859498 1.112,-1.112027 2.8595,-1.112027 h 16.8392 q 2.7007,0 3.8127,1.270888 1.2709,1.112027 1.5886,1.747471 l 38.7621,61.002623 V 45.059983 q 0,-1.747471 1.112,-2.859498 1.1121,-1.112027 2.8595,-1.112027 h 19.0633 q 1.7475,0 2.8595,1.112027 1.1121,1.112027 1.1121,2.859498 V 148.16077 q 0,1.74747 -1.1121,3.01836 -1.112,1.11202 -2.8595,1.11202 h -16.9981 q -2.5418,0 -3.8126,-1.27088 -1.1121,-1.27089 -1.4298,-1.74748 l -38.7621,-58.778563 v 57.825403 q 0,1.58861 -1.112,2.8595 -1.112,1.11202 -2.8595,1.11202 z m 156.1603,1.58861 q -15.0918,0 -26.0532,-4.92469 -10.8026,-5.08355 -16.8393,-14.61521 -5.8778,-9.69052 -6.5133,-23.51143 -0.1588,-6.83102 -0.1588,-14.456346 0,-7.784189 0.1588,-14.774073 0.6355,-13.503184 6.6722,-22.875983 6.0367,-9.372798 16.9981,-14.297489 10.9614,-4.924691 25.7355,-4.924691 11.9146,0 21.1285,3.018359 9.2139,2.859498 15.4095,7.784189 6.3545,4.924691 9.6905,10.802547 3.3361,5.877857 3.495,11.596853 0,1.429749 -1.112,2.382915 -0.9532,0.953166 -2.383,0.953166 h -23.1937 q -1.7474,0 -2.7006,-0.476583 -0.7943,-0.635444 -1.4298,-1.747471 -1.112,-2.382915 -3.336,-4.924691 -2.0652,-2.700637 -5.8779,-4.606969 -3.6538,-1.906332 -9.6905,-1.906332 -8.8962,0 -14.1386,4.76583 -5.2425,4.76583 -5.719,15.250655 -0.4766,13.662046 0,27.641814 0.4765,11.12027 5.8778,16.04496 5.4013,4.92469 14.4564,4.92469 5.8778,0 10.4848,-2.06519 4.7658,-2.0652 7.4665,-6.35444 2.7006,-4.44811 2.7006,-11.27913 v -3.01836 h -14.9329 q -1.7475,0 -2.8595,-1.11203 -1.1121,-1.27089 -1.1121,-3.01836 V 92.400559 q 0,-1.747471 1.1121,-2.859498 1.112,-1.270888 2.8595,-1.270888 h 40.0329 q 1.7475,0 2.8595,1.270888 1.1121,1.112027 1.1121,2.859498 v 18.110151 q 0,13.66205 -6.1956,23.35257 -6.1956,9.69052 -17.6336,14.93293 -11.2791,5.08355 -26.3709,5.08355 z m 72.4405,-1.58861 q -1.7475,0 -2.8595,-1.11202 -1.112,-1.27089 -1.112,-2.8595 V 45.059983 q 0,-1.747471 1.112,-2.859498 1.112,-1.112027 2.8595,-1.112027 h 74.1881 q 1.7475,0 2.8595,1.112027 1.112,1.112027 1.112,2.859498 v 14.932933 q 0,1.747471 -1.112,2.859498 -1.112,1.112027 -2.8595,1.112027 h -50.6767 v 21.446234 h 47.1818 q 1.7474,0 2.8594,1.270888 1.1121,1.112027 1.1121,2.859498 v 13.820909 q 0,1.58861 -1.1121,2.8595 -1.112,1.11202 -2.8594,1.11202 h -47.1818 v 22.08168 h 51.9476 q 1.7475,0 2.8595,1.11203 1.112,1.11202 1.112,2.85949 v 14.93294 q 0,1.58861 -1.112,2.8595 -1.112,1.11202 -2.8595,1.11202 z m 139.0034,1.58861 q -15.8861,0 -26.371,-4.4481 -10.4848,-4.60697 -15.8861,-11.91458 -5.4012,-7.3076 -5.719,-15.56838 0,-1.27088 0.9532,-2.22405 1.112,-1.11203 2.5418,-1.11203 h 20.0165 q 2.224,0 3.336,0.79431 1.2709,0.7943 2.2241,2.06519 1.2709,2.38292 3.4949,4.60697 2.3829,2.22405 6.1956,3.6538 3.8127,1.27089 9.214,1.27089 9.2139,0 13.8209,-2.8595 4.7658,-2.8595 4.7658,-7.78419 0,-3.6538 -2.5418,-5.87785 -2.5418,-2.22406 -8.2608,-3.97153 -5.5601,-1.90633 -14.9329,-3.81266 -12.0734,-2.54178 -20.6519,-6.5133 -8.4197,-4.130388 -12.8678,-10.643689 -4.4481,-6.672162 -4.4481,-16.521543 0,-9.690521 5.4013,-17.315848 5.5601,-7.625328 15.4095,-11.914575 9.8494,-4.289247 23.3526,-4.289247 10.9614,0 19.2222,2.859498 8.4196,2.859498 14.1386,7.625328 5.719,4.76583 8.5785,10.167103 3.0183,5.242413 3.1772,10.325965 0,1.270888 -0.9532,2.382915 -0.7943,0.953166 -2.3829,0.953166 h -20.9696 q -1.7475,0 -3.0184,-0.635444 -1.2709,-0.635444 -2.224,-2.065193 -0.9532,-3.494942 -5.0836,-6.036718 -3.9715,-2.700637 -10.4848,-2.700637 -6.9899,0 -10.9614,2.541776 -3.8127,2.382915 -3.8127,7.466467 0,3.17722 2.0652,5.560134 2.2241,2.382915 7.1487,4.130386 5.0836,1.747471 13.821,3.653803 14.4563,2.700637 23.3525,6.831023 8.8962,3.971525 13.0266,10.48483 4.2893,6.35443 4.2893,16.04496 0,10.80254 -6.1956,18.58673 -6.1956,7.78419 -16.9981,12.07344 -10.6437,4.13038 -24.7823,4.13038 z"
     id="text20"
     aria-label="CHALLENGES" />
</svg>
